<mxfile host="app.diagrams.net" modified="2024-06-10T02:32:11.721Z" agent="Mozilla/5.0 (Windows NT 10.0; Win64; x64) AppleWebKit/537.36 (KHTML, like Gecko) Chrome/125.0.0.0 Safari/537.36" etag="4CRq6m5XN5I-QuZlzMSL" version="24.5.2" type="github" pages="12">
  <diagram name="overall process" id="1fwx0v20KS1qK22bXhxl">
    <mxGraphModel dx="1154" dy="538" grid="0" gridSize="10" guides="1" tooltips="1" connect="1" arrows="1" fold="1" page="0" pageScale="1" pageWidth="827" pageHeight="1169" math="0" shadow="0">
      <root>
        <mxCell id="0" />
        <mxCell id="1" parent="0" />
        <mxCell id="Jo4BSiBk1LysVtSisImH-1" value="根据question定位数据库表" style="rounded=1;whiteSpace=wrap;html=1;absoluteArcSize=1;arcSize=14;strokeWidth=2;labelPosition=center;verticalLabelPosition=top;align=center;verticalAlign=bottom;" parent="1" vertex="1">
          <mxGeometry x="160" y="120" width="120" height="80" as="geometry" />
        </mxCell>
        <mxCell id="Jo4BSiBk1LysVtSisImH-2" value="&lt;font style=&quot;font-size: 16px;&quot;&gt;question&lt;/font&gt;" style="text;html=1;strokeColor=none;fillColor=none;align=center;verticalAlign=middle;whiteSpace=wrap;rounded=0;" parent="1" vertex="1">
          <mxGeometry x="36" y="136" width="70" height="45" as="geometry" />
        </mxCell>
        <mxCell id="Jo4BSiBk1LysVtSisImH-3" value="" style="endArrow=classic;html=1;rounded=0;" parent="1" edge="1">
          <mxGeometry width="50" height="50" relative="1" as="geometry">
            <mxPoint x="111" y="160" as="sourcePoint" />
            <mxPoint x="159" y="160" as="targetPoint" />
          </mxGeometry>
        </mxCell>
        <mxCell id="Jo4BSiBk1LysVtSisImH-5" value="深度学习方法" style="rounded=1;whiteSpace=wrap;html=1;absoluteArcSize=1;arcSize=14;strokeWidth=2;" parent="1" vertex="1">
          <mxGeometry x="175" y="126" width="90" height="30" as="geometry" />
        </mxCell>
        <mxCell id="Jo4BSiBk1LysVtSisImH-6" value="大模型方法" style="rounded=1;whiteSpace=wrap;html=1;absoluteArcSize=1;arcSize=14;strokeWidth=2;" parent="1" vertex="1">
          <mxGeometry x="175" y="162" width="90" height="30" as="geometry" />
        </mxCell>
        <mxCell id="Jo4BSiBk1LysVtSisImH-14" style="edgeStyle=orthogonalEdgeStyle;rounded=0;orthogonalLoop=1;jettySize=auto;html=1;exitX=1;exitY=0.5;exitDx=0;exitDy=0;entryX=0;entryY=0.5;entryDx=0;entryDy=0;" parent="1" source="Jo4BSiBk1LysVtSisImH-8" target="Jo4BSiBk1LysVtSisImH-11" edge="1">
          <mxGeometry relative="1" as="geometry" />
        </mxCell>
        <mxCell id="Jo4BSiBk1LysVtSisImH-8" value="模式链接" style="rounded=1;whiteSpace=wrap;html=1;absoluteArcSize=1;arcSize=14;strokeWidth=2;labelPosition=center;verticalLabelPosition=top;align=center;verticalAlign=bottom;" parent="1" vertex="1">
          <mxGeometry x="321" y="120" width="110" height="80" as="geometry" />
        </mxCell>
        <mxCell id="Jo4BSiBk1LysVtSisImH-9" value="Zeroshot" style="rounded=1;whiteSpace=wrap;html=1;absoluteArcSize=1;arcSize=14;strokeWidth=2;" parent="1" vertex="1">
          <mxGeometry x="337" y="126" width="80" height="30" as="geometry" />
        </mxCell>
        <mxCell id="Jo4BSiBk1LysVtSisImH-10" value="Oneshot" style="rounded=1;whiteSpace=wrap;html=1;absoluteArcSize=1;arcSize=14;strokeWidth=2;" parent="1" vertex="1">
          <mxGeometry x="336" y="162" width="80" height="30" as="geometry" />
        </mxCell>
        <mxCell id="Jo4BSiBk1LysVtSisImH-17" style="edgeStyle=orthogonalEdgeStyle;rounded=0;orthogonalLoop=1;jettySize=auto;html=1;exitX=1;exitY=0.5;exitDx=0;exitDy=0;entryX=0;entryY=0.5;entryDx=0;entryDy=0;" parent="1" source="Jo4BSiBk1LysVtSisImH-11" target="Jo4BSiBk1LysVtSisImH-15" edge="1">
          <mxGeometry relative="1" as="geometry" />
        </mxCell>
        <mxCell id="Jo4BSiBk1LysVtSisImH-11" value="构建Prompt，调用大模型" style="rounded=1;whiteSpace=wrap;html=1;absoluteArcSize=1;arcSize=14;strokeWidth=2;" parent="1" vertex="1">
          <mxGeometry x="470" y="120" width="100" height="80" as="geometry" />
        </mxCell>
        <mxCell id="Jo4BSiBk1LysVtSisImH-12" value="" style="endArrow=classic;html=1;rounded=0;entryX=0;entryY=0.5;entryDx=0;entryDy=0;exitX=1;exitY=0.5;exitDx=0;exitDy=0;" parent="1" source="Jo4BSiBk1LysVtSisImH-1" target="Jo4BSiBk1LysVtSisImH-8" edge="1">
          <mxGeometry width="50" height="50" relative="1" as="geometry">
            <mxPoint x="280" y="162" as="sourcePoint" />
            <mxPoint x="330" y="112" as="targetPoint" />
          </mxGeometry>
        </mxCell>
        <mxCell id="Jo4BSiBk1LysVtSisImH-15" value="对大模型生成的sql进行校验" style="rounded=1;whiteSpace=wrap;html=1;absoluteArcSize=1;arcSize=14;strokeWidth=2;labelPosition=center;verticalLabelPosition=top;align=center;verticalAlign=bottom;" parent="1" vertex="1">
          <mxGeometry x="610" y="120" width="100" height="80" as="geometry" />
        </mxCell>
        <mxCell id="Jo4BSiBk1LysVtSisImH-18" value="用LLM进行校验" style="rounded=1;whiteSpace=wrap;html=1;absoluteArcSize=1;arcSize=14;strokeWidth=2;" parent="1" vertex="1">
          <mxGeometry x="620" y="126" width="80" height="30" as="geometry" />
        </mxCell>
        <mxCell id="Jo4BSiBk1LysVtSisImH-19" value="用正则表达式校验" style="rounded=1;whiteSpace=wrap;html=1;absoluteArcSize=1;arcSize=14;strokeWidth=2;" parent="1" vertex="1">
          <mxGeometry x="620" y="162" width="80" height="30" as="geometry" />
        </mxCell>
        <mxCell id="Jo4BSiBk1LysVtSisImH-24" style="edgeStyle=orthogonalEdgeStyle;rounded=0;orthogonalLoop=1;jettySize=auto;html=1;exitX=1;exitY=0.5;exitDx=0;exitDy=0;exitPerimeter=0;entryX=0;entryY=0.5;entryDx=0;entryDy=0;" parent="1" source="Jo4BSiBk1LysVtSisImH-20" target="Jo4BSiBk1LysVtSisImH-23" edge="1">
          <mxGeometry relative="1" as="geometry" />
        </mxCell>
        <mxCell id="Jo4BSiBk1LysVtSisImH-29" style="edgeStyle=orthogonalEdgeStyle;rounded=0;orthogonalLoop=1;jettySize=auto;html=1;exitX=0.5;exitY=1;exitDx=0;exitDy=0;exitPerimeter=0;entryX=1;entryY=0.5;entryDx=0;entryDy=0;" parent="1" source="Jo4BSiBk1LysVtSisImH-20" target="Jo4BSiBk1LysVtSisImH-28" edge="1">
          <mxGeometry relative="1" as="geometry" />
        </mxCell>
        <mxCell id="Jo4BSiBk1LysVtSisImH-20" value="校验通过" style="strokeWidth=2;html=1;shape=mxgraph.flowchart.decision;whiteSpace=wrap;" parent="1" vertex="1">
          <mxGeometry x="750" y="140" width="100" height="40" as="geometry" />
        </mxCell>
        <mxCell id="Jo4BSiBk1LysVtSisImH-22" style="edgeStyle=orthogonalEdgeStyle;rounded=0;orthogonalLoop=1;jettySize=auto;html=1;exitX=1;exitY=0.5;exitDx=0;exitDy=0;entryX=0;entryY=0.5;entryDx=0;entryDy=0;entryPerimeter=0;" parent="1" source="Jo4BSiBk1LysVtSisImH-15" target="Jo4BSiBk1LysVtSisImH-20" edge="1">
          <mxGeometry relative="1" as="geometry" />
        </mxCell>
        <mxCell id="Jo4BSiBk1LysVtSisImH-27" style="edgeStyle=orthogonalEdgeStyle;rounded=0;orthogonalLoop=1;jettySize=auto;html=1;exitX=1;exitY=0.5;exitDx=0;exitDy=0;entryX=0;entryY=0.5;entryDx=0;entryDy=0;" parent="1" source="Jo4BSiBk1LysVtSisImH-23" target="Jo4BSiBk1LysVtSisImH-26" edge="1">
          <mxGeometry relative="1" as="geometry" />
        </mxCell>
        <mxCell id="Jo4BSiBk1LysVtSisImH-23" value="对sql中的value进行值映射" style="rounded=1;whiteSpace=wrap;html=1;absoluteArcSize=1;arcSize=14;strokeWidth=2;" parent="1" vertex="1">
          <mxGeometry x="890" y="120" width="90" height="80" as="geometry" />
        </mxCell>
        <mxCell id="Jo4BSiBk1LysVtSisImH-25" value="Y" style="text;html=1;strokeColor=none;fillColor=none;align=center;verticalAlign=middle;whiteSpace=wrap;rounded=0;" parent="1" vertex="1">
          <mxGeometry x="860" y="136" width="20" height="30" as="geometry" />
        </mxCell>
        <mxCell id="Jo4BSiBk1LysVtSisImH-26" value="End" style="rounded=1;whiteSpace=wrap;html=1;absoluteArcSize=1;arcSize=14;strokeWidth=2;" parent="1" vertex="1">
          <mxGeometry x="1020" y="145" width="60" height="30" as="geometry" />
        </mxCell>
        <mxCell id="Jo4BSiBk1LysVtSisImH-30" style="edgeStyle=orthogonalEdgeStyle;rounded=0;orthogonalLoop=1;jettySize=auto;html=1;exitX=0;exitY=0.5;exitDx=0;exitDy=0;" parent="1" source="Jo4BSiBk1LysVtSisImH-28" edge="1">
          <mxGeometry relative="1" as="geometry">
            <mxPoint x="450" y="160" as="targetPoint" />
          </mxGeometry>
        </mxCell>
        <mxCell id="Jo4BSiBk1LysVtSisImH-28" value="根据校验结果修正Prompt" style="rounded=1;whiteSpace=wrap;html=1;absoluteArcSize=1;arcSize=14;strokeWidth=2;" parent="1" vertex="1">
          <mxGeometry x="540" y="240" width="100" height="40" as="geometry" />
        </mxCell>
        <mxCell id="Jo4BSiBk1LysVtSisImH-31" value="N" style="text;html=1;strokeColor=none;fillColor=none;align=center;verticalAlign=middle;whiteSpace=wrap;rounded=0;" parent="1" vertex="1">
          <mxGeometry x="710" y="235" width="20" height="30" as="geometry" />
        </mxCell>
        <mxCell id="zUpeYblCH21wEQa9Vj23-1" value="&lt;font style=&quot;font-size: 16px;&quot;&gt;整体流程&lt;/font&gt;" style="text;html=1;strokeColor=none;fillColor=none;align=center;verticalAlign=middle;whiteSpace=wrap;rounded=0;" parent="1" vertex="1">
          <mxGeometry x="30" y="50" width="99" height="30" as="geometry" />
        </mxCell>
      </root>
    </mxGraphModel>
  </diagram>
  <diagram id="NKaSB5zHFHcIWtCWGdP4" name="NL2TABLE">
    <mxGraphModel grid="0" page="0" gridSize="10" guides="1" tooltips="1" connect="1" arrows="1" fold="1" pageScale="1" pageWidth="827" pageHeight="1169" math="0" shadow="0">
      <root>
        <mxCell id="0" />
        <mxCell id="1" parent="0" />
        <mxCell id="-ZHznQ1eW0HuOb2Uy_OW-1" value="&lt;font style=&quot;font-size: 16px;&quot;&gt;基于LLM的NL2TABLE&lt;/font&gt;" style="text;html=1;strokeColor=none;fillColor=none;align=center;verticalAlign=middle;whiteSpace=wrap;rounded=0;fontSize=15;" vertex="1" parent="1">
          <mxGeometry x="-2010" y="-2820" width="209" height="30" as="geometry" />
        </mxCell>
        <mxCell id="-ZHznQ1eW0HuOb2Uy_OW-2" style="edgeStyle=orthogonalEdgeStyle;rounded=0;orthogonalLoop=1;jettySize=auto;html=1;exitX=1;exitY=0.5;exitDx=0;exitDy=0;entryX=0;entryY=0.5;entryDx=0;entryDy=0;" edge="1" parent="1" source="-ZHznQ1eW0HuOb2Uy_OW-3" target="-ZHznQ1eW0HuOb2Uy_OW-5">
          <mxGeometry relative="1" as="geometry" />
        </mxCell>
        <mxCell id="-ZHznQ1eW0HuOb2Uy_OW-3" value="&lt;font style=&quot;font-size: 16px;&quot;&gt;question&lt;/font&gt;" style="text;html=1;strokeColor=none;fillColor=none;align=center;verticalAlign=middle;whiteSpace=wrap;rounded=0;" vertex="1" parent="1">
          <mxGeometry x="-1984" y="-2725" width="60" height="30" as="geometry" />
        </mxCell>
        <mxCell id="-ZHznQ1eW0HuOb2Uy_OW-4" style="edgeStyle=orthogonalEdgeStyle;rounded=0;orthogonalLoop=1;jettySize=auto;html=1;exitX=1;exitY=0.5;exitDx=0;exitDy=0;entryX=0;entryY=0.5;entryDx=0;entryDy=0;" edge="1" parent="1" source="-ZHznQ1eW0HuOb2Uy_OW-5" target="-ZHznQ1eW0HuOb2Uy_OW-6">
          <mxGeometry relative="1" as="geometry" />
        </mxCell>
        <mxCell id="-ZHznQ1eW0HuOb2Uy_OW-5" value="动态构建Prompt&lt;br&gt;&lt;br&gt;根据question中的关键字，初步划分为大额、小额、止付、网银四个类型，每个类型对应几张表&lt;br&gt;以此缩小搜索范围" style="rounded=1;whiteSpace=wrap;html=1;absoluteArcSize=1;arcSize=14;strokeWidth=2;align=left;" vertex="1" parent="1">
          <mxGeometry x="-1880" y="-2760" width="185" height="100" as="geometry" />
        </mxCell>
        <mxCell id="-ZHznQ1eW0HuOb2Uy_OW-6" value="调用LLM" style="rounded=1;whiteSpace=wrap;html=1;absoluteArcSize=1;arcSize=14;strokeWidth=2;" vertex="1" parent="1">
          <mxGeometry x="-1640" y="-2760" width="100" height="100" as="geometry" />
        </mxCell>
        <mxCell id="-ZHznQ1eW0HuOb2Uy_OW-7" style="edgeStyle=orthogonalEdgeStyle;rounded=0;orthogonalLoop=1;jettySize=auto;html=1;exitX=0.5;exitY=1;exitDx=0;exitDy=0;exitPerimeter=0;entryX=0;entryY=0.5;entryDx=0;entryDy=0;" edge="1" parent="1" source="-ZHznQ1eW0HuOb2Uy_OW-9" target="-ZHznQ1eW0HuOb2Uy_OW-6">
          <mxGeometry relative="1" as="geometry">
            <Array as="points">
              <mxPoint x="-1415" y="-2640" />
              <mxPoint x="-1660" y="-2640" />
              <mxPoint x="-1660" y="-2710" />
            </Array>
          </mxGeometry>
        </mxCell>
        <mxCell id="-ZHznQ1eW0HuOb2Uy_OW-8" style="edgeStyle=orthogonalEdgeStyle;rounded=0;orthogonalLoop=1;jettySize=auto;html=1;exitX=1;exitY=0.5;exitDx=0;exitDy=0;exitPerimeter=0;entryX=0;entryY=0.5;entryDx=0;entryDy=0;" edge="1" parent="1" source="-ZHznQ1eW0HuOb2Uy_OW-9" target="-ZHznQ1eW0HuOb2Uy_OW-13">
          <mxGeometry relative="1" as="geometry" />
        </mxCell>
        <mxCell id="-ZHznQ1eW0HuOb2Uy_OW-9" value="LLM返回结果是否符合#AAAA2222#的形式？" style="strokeWidth=2;html=1;shape=mxgraph.flowchart.decision;whiteSpace=wrap;" vertex="1" parent="1">
          <mxGeometry x="-1490" y="-2760" width="150" height="100" as="geometry" />
        </mxCell>
        <mxCell id="-ZHznQ1eW0HuOb2Uy_OW-10" style="edgeStyle=orthogonalEdgeStyle;rounded=0;orthogonalLoop=1;jettySize=auto;html=1;exitX=1;exitY=0.5;exitDx=0;exitDy=0;entryX=0;entryY=0.5;entryDx=0;entryDy=0;entryPerimeter=0;" edge="1" parent="1" source="-ZHznQ1eW0HuOb2Uy_OW-6" target="-ZHznQ1eW0HuOb2Uy_OW-9">
          <mxGeometry relative="1" as="geometry" />
        </mxCell>
        <mxCell id="-ZHznQ1eW0HuOb2Uy_OW-11" value="N" style="text;html=1;strokeColor=none;fillColor=none;align=center;verticalAlign=middle;whiteSpace=wrap;rounded=0;" vertex="1" parent="1">
          <mxGeometry x="-1530" y="-2670" width="20" height="30" as="geometry" />
        </mxCell>
        <mxCell id="-ZHznQ1eW0HuOb2Uy_OW-12" style="edgeStyle=orthogonalEdgeStyle;rounded=0;orthogonalLoop=1;jettySize=auto;html=1;exitX=1;exitY=0.5;exitDx=0;exitDy=0;" edge="1" parent="1" source="-ZHznQ1eW0HuOb2Uy_OW-13" target="-ZHznQ1eW0HuOb2Uy_OW-14">
          <mxGeometry relative="1" as="geometry" />
        </mxCell>
        <mxCell id="-ZHznQ1eW0HuOb2Uy_OW-13" value="根据错误经验修正大模型结果&lt;br&gt;&lt;div style=&quot;&quot;&gt;&lt;br&gt;&lt;/div&gt;&lt;div style=&quot;&quot;&gt;eg:预测结果为BEOT0102，且question中含有总金额，总包数，总笔数的，将结果修正为BEOT0101;问题中含有”冲正“的，将结果修复为BEOT0116&lt;/div&gt;" style="rounded=1;whiteSpace=wrap;html=1;absoluteArcSize=1;arcSize=14;strokeWidth=2;align=left;fillColor=#f8cecc;strokeColor=#b85450;" vertex="1" parent="1">
          <mxGeometry x="-1300" y="-2760" width="180" height="100" as="geometry" />
        </mxCell>
        <mxCell id="-ZHznQ1eW0HuOb2Uy_OW-14" value="End" style="rounded=1;whiteSpace=wrap;html=1;absoluteArcSize=1;arcSize=14;strokeWidth=2;" vertex="1" parent="1">
          <mxGeometry x="-1070" y="-2725" width="50" height="30" as="geometry" />
        </mxCell>
      </root>
    </mxGraphModel>
  </diagram>
  <diagram id="HUBfbTjDDkdf9c7PtjG2" name="schema link">
    <mxGraphModel grid="0" page="0" gridSize="10" guides="1" tooltips="1" connect="1" arrows="1" fold="1" pageScale="1" pageWidth="827" pageHeight="1169" math="0" shadow="0">
      <root>
        <mxCell id="0" />
        <mxCell id="1" parent="0" />
        <mxCell id="bNu2SXdS037bqFfqN4gw-1" value="&lt;font style=&quot;font-size: 16px;&quot;&gt;模式链接&lt;/font&gt;" style="text;html=1;strokeColor=none;fillColor=none;align=center;verticalAlign=middle;whiteSpace=wrap;rounded=0;fontSize=15;" vertex="1" parent="1">
          <mxGeometry x="-1200" y="-60" width="130" height="30" as="geometry" />
        </mxCell>
        <mxCell id="bNu2SXdS037bqFfqN4gw-10" style="edgeStyle=orthogonalEdgeStyle;rounded=0;orthogonalLoop=1;jettySize=auto;html=1;exitX=1;exitY=0.5;exitDx=0;exitDy=0;entryX=0;entryY=0.5;entryDx=0;entryDy=0;" edge="1" parent="1" source="bNu2SXdS037bqFfqN4gw-2" target="bNu2SXdS037bqFfqN4gw-3">
          <mxGeometry relative="1" as="geometry" />
        </mxCell>
        <mxCell id="bNu2SXdS037bqFfqN4gw-2" value="&lt;font style=&quot;font-size: 16px;&quot;&gt;question&lt;/font&gt;" style="text;html=1;strokeColor=none;fillColor=none;align=center;verticalAlign=middle;whiteSpace=wrap;rounded=0;" vertex="1" parent="1">
          <mxGeometry x="-1165" y="58" width="60" height="30" as="geometry" />
        </mxCell>
        <mxCell id="bNu2SXdS037bqFfqN4gw-11" style="edgeStyle=orthogonalEdgeStyle;rounded=0;orthogonalLoop=1;jettySize=auto;html=1;exitX=1;exitY=0.5;exitDx=0;exitDy=0;entryX=0;entryY=0.5;entryDx=0;entryDy=0;" edge="1" parent="1" source="bNu2SXdS037bqFfqN4gw-3" target="bNu2SXdS037bqFfqN4gw-4">
          <mxGeometry relative="1" as="geometry" />
        </mxCell>
        <mxCell id="bNu2SXdS037bqFfqN4gw-3" value="动态构建Prompt&lt;br&gt;&lt;br&gt;&lt;div style=&quot;&quot;&gt;Prompt中表信息是动态的，对于fewshot，例子是动态的&lt;/div&gt;&lt;div style=&quot;&quot;&gt;&lt;br&gt;&lt;/div&gt;&lt;div style=&quot;&quot;&gt;&lt;br&gt;&lt;/div&gt;&lt;div style=&quot;&quot;&gt;&lt;br&gt;&lt;/div&gt;&lt;div style=&quot;&quot;&gt;&lt;br&gt;&lt;/div&gt;" style="rounded=1;whiteSpace=wrap;html=1;absoluteArcSize=1;arcSize=14;strokeWidth=2;align=left;" vertex="1" parent="1">
          <mxGeometry x="-1047" y="-4" width="146" height="154" as="geometry" />
        </mxCell>
        <mxCell id="bNu2SXdS037bqFfqN4gw-4" value="调用LLM" style="rounded=1;whiteSpace=wrap;html=1;absoluteArcSize=1;arcSize=14;strokeWidth=2;" vertex="1" parent="1">
          <mxGeometry x="-851" y="33" width="70" height="80" as="geometry" />
        </mxCell>
        <mxCell id="bNu2SXdS037bqFfqN4gw-8" value="" style="group" vertex="1" connectable="0" parent="1">
          <mxGeometry x="-730" y="-20" width="160" height="210" as="geometry" />
        </mxCell>
        <mxCell id="bNu2SXdS037bqFfqN4gw-7" value="schema link结果校验" style="rounded=1;whiteSpace=wrap;html=1;absoluteArcSize=1;arcSize=14;strokeWidth=2;labelPosition=center;verticalLabelPosition=top;align=center;verticalAlign=bottom;" vertex="1" parent="bNu2SXdS037bqFfqN4gw-8">
          <mxGeometry width="160" height="210" as="geometry" />
        </mxCell>
        <mxCell id="bNu2SXdS037bqFfqN4gw-5" value="fewshot - 文字描述&lt;br&gt;&lt;br&gt;1.结果中的column需要存在于table中&lt;br&gt;2.通过正则验证结果中的column描述是否与question相关" style="rounded=1;whiteSpace=wrap;html=1;absoluteArcSize=1;arcSize=14;strokeWidth=2;align=left;fillColor=#f8cecc;strokeColor=#b85450;" vertex="1" parent="bNu2SXdS037bqFfqN4gw-8">
          <mxGeometry x="10" y="10" width="140" height="120" as="geometry" />
        </mxCell>
        <mxCell id="bNu2SXdS037bqFfqN4gw-6" value="zeroshot - json格式&lt;br&gt;&lt;br&gt;column是否存在于table中" style="rounded=1;whiteSpace=wrap;html=1;absoluteArcSize=1;arcSize=14;strokeWidth=2;align=left;" vertex="1" parent="bNu2SXdS037bqFfqN4gw-8">
          <mxGeometry x="10" y="140" width="140" height="60" as="geometry" />
        </mxCell>
        <mxCell id="bNu2SXdS037bqFfqN4gw-15" style="edgeStyle=orthogonalEdgeStyle;rounded=0;orthogonalLoop=1;jettySize=auto;html=1;exitX=1;exitY=0.5;exitDx=0;exitDy=0;exitPerimeter=0;entryX=0;entryY=0.5;entryDx=0;entryDy=0;" edge="1" parent="1" source="bNu2SXdS037bqFfqN4gw-9" target="bNu2SXdS037bqFfqN4gw-14">
          <mxGeometry relative="1" as="geometry" />
        </mxCell>
        <mxCell id="bNu2SXdS037bqFfqN4gw-21" style="edgeStyle=orthogonalEdgeStyle;rounded=0;orthogonalLoop=1;jettySize=auto;html=1;exitX=0.5;exitY=1;exitDx=0;exitDy=0;exitPerimeter=0;entryX=1;entryY=0.5;entryDx=0;entryDy=0;" edge="1" parent="1" source="bNu2SXdS037bqFfqN4gw-9" target="bNu2SXdS037bqFfqN4gw-19">
          <mxGeometry relative="1" as="geometry" />
        </mxCell>
        <mxCell id="bNu2SXdS037bqFfqN4gw-9" value="校验通过" style="strokeWidth=2;html=1;shape=mxgraph.flowchart.decision;whiteSpace=wrap;" vertex="1" parent="1">
          <mxGeometry x="-521" y="60" width="100" height="40" as="geometry" />
        </mxCell>
        <mxCell id="bNu2SXdS037bqFfqN4gw-12" style="edgeStyle=orthogonalEdgeStyle;rounded=0;orthogonalLoop=1;jettySize=auto;html=1;exitX=1;exitY=0.5;exitDx=0;exitDy=0;entryX=0.01;entryY=0.444;entryDx=0;entryDy=0;entryPerimeter=0;" edge="1" parent="1" source="bNu2SXdS037bqFfqN4gw-4" target="bNu2SXdS037bqFfqN4gw-7">
          <mxGeometry relative="1" as="geometry" />
        </mxCell>
        <mxCell id="bNu2SXdS037bqFfqN4gw-13" style="edgeStyle=orthogonalEdgeStyle;rounded=0;orthogonalLoop=1;jettySize=auto;html=1;exitX=0.991;exitY=0.473;exitDx=0;exitDy=0;entryX=0;entryY=0.5;entryDx=0;entryDy=0;entryPerimeter=0;exitPerimeter=0;" edge="1" parent="1" source="bNu2SXdS037bqFfqN4gw-7" target="bNu2SXdS037bqFfqN4gw-9">
          <mxGeometry relative="1" as="geometry" />
        </mxCell>
        <mxCell id="bNu2SXdS037bqFfqN4gw-17" style="edgeStyle=orthogonalEdgeStyle;rounded=0;orthogonalLoop=1;jettySize=auto;html=1;exitX=1;exitY=0.5;exitDx=0;exitDy=0;entryX=0;entryY=0.5;entryDx=0;entryDy=0;" edge="1" parent="1" source="bNu2SXdS037bqFfqN4gw-14" target="bNu2SXdS037bqFfqN4gw-16">
          <mxGeometry relative="1" as="geometry" />
        </mxCell>
        <mxCell id="bNu2SXdS037bqFfqN4gw-14" value="整合schema link结果" style="rounded=1;whiteSpace=wrap;html=1;absoluteArcSize=1;arcSize=14;strokeWidth=2;" vertex="1" parent="1">
          <mxGeometry x="-380" y="50" width="80" height="60" as="geometry" />
        </mxCell>
        <mxCell id="bNu2SXdS037bqFfqN4gw-16" value="End" style="rounded=1;whiteSpace=wrap;html=1;absoluteArcSize=1;arcSize=14;strokeWidth=2;" vertex="1" parent="1">
          <mxGeometry x="-250" y="60" width="80" height="40" as="geometry" />
        </mxCell>
        <mxCell id="bNu2SXdS037bqFfqN4gw-22" style="edgeStyle=orthogonalEdgeStyle;rounded=0;orthogonalLoop=1;jettySize=auto;html=1;exitX=0;exitY=0.5;exitDx=0;exitDy=0;entryX=0;entryY=0.5;entryDx=0;entryDy=0;" edge="1" parent="1" source="bNu2SXdS037bqFfqN4gw-19" target="bNu2SXdS037bqFfqN4gw-4">
          <mxGeometry relative="1" as="geometry" />
        </mxCell>
        <mxCell id="bNu2SXdS037bqFfqN4gw-19" value="将校验通过的schema link存起来" style="rounded=1;whiteSpace=wrap;html=1;absoluteArcSize=1;arcSize=14;strokeWidth=2;" vertex="1" parent="1">
          <mxGeometry x="-730" y="230" width="160" height="50" as="geometry" />
        </mxCell>
        <mxCell id="nEKAgU9ENiP-HTLm1IA7-1" value="zeroshot" style="rounded=0;whiteSpace=wrap;html=1;" vertex="1" parent="1">
          <mxGeometry x="-1036" y="83" width="120" height="25" as="geometry" />
        </mxCell>
        <mxCell id="nEKAgU9ENiP-HTLm1IA7-2" value="fewshot" style="rounded=0;whiteSpace=wrap;html=1;" vertex="1" parent="1">
          <mxGeometry x="-1036" y="116" width="120" height="25" as="geometry" />
        </mxCell>
      </root>
    </mxGraphModel>
  </diagram>
  <diagram id="xsgMfd8_sbdKErgIg4UG" name="sql校验">
    <mxGraphModel grid="0" page="0" gridSize="10" guides="1" tooltips="1" connect="1" arrows="1" fold="1" pageScale="1" pageWidth="827" pageHeight="1169" math="0" shadow="0">
      <root>
        <mxCell id="0" />
        <mxCell id="1" parent="0" />
        <mxCell id="6eM4hsqrZe1IQDT6SxKK-20" style="edgeStyle=orthogonalEdgeStyle;rounded=0;orthogonalLoop=1;jettySize=auto;html=1;exitX=1;exitY=0.5;exitDx=0;exitDy=0;entryX=0;entryY=0.5;entryDx=0;entryDy=0;entryPerimeter=0;" edge="1" parent="1" source="6eM4hsqrZe1IQDT6SxKK-9" target="6eM4hsqrZe1IQDT6SxKK-13">
          <mxGeometry relative="1" as="geometry">
            <mxPoint x="229.99999999999977" y="156.9310344827586" as="targetPoint" />
          </mxGeometry>
        </mxCell>
        <mxCell id="6eM4hsqrZe1IQDT6SxKK-9" value="校验LLM生成的sql结果" style="rounded=1;whiteSpace=wrap;html=1;absoluteArcSize=1;arcSize=14;strokeWidth=2;labelPosition=center;verticalLabelPosition=top;align=center;verticalAlign=bottom;" vertex="1" parent="1">
          <mxGeometry x="-158" y="52" width="528" height="210" as="geometry" />
        </mxCell>
        <mxCell id="6eM4hsqrZe1IQDT6SxKK-22" style="edgeStyle=orthogonalEdgeStyle;rounded=0;orthogonalLoop=1;jettySize=auto;html=1;exitX=0;exitY=0.5;exitDx=0;exitDy=0;entryX=0;entryY=0.5;entryDx=0;entryDy=0;" edge="1" parent="1" source="6eM4hsqrZe1IQDT6SxKK-1" target="6eM4hsqrZe1IQDT6SxKK-3">
          <mxGeometry relative="1" as="geometry" />
        </mxCell>
        <mxCell id="6eM4hsqrZe1IQDT6SxKK-1" value="根据校验结果重新构建prompt" style="rounded=1;whiteSpace=wrap;html=1;absoluteArcSize=1;arcSize=14;strokeWidth=2;" vertex="1" parent="1">
          <mxGeometry x="-158" y="320" width="100" height="50" as="geometry" />
        </mxCell>
        <mxCell id="6eM4hsqrZe1IQDT6SxKK-10" style="edgeStyle=orthogonalEdgeStyle;rounded=0;orthogonalLoop=1;jettySize=auto;html=1;exitX=1;exitY=0.5;exitDx=0;exitDy=0;entryX=0;entryY=0.5;entryDx=0;entryDy=0;" edge="1" parent="1" source="6eM4hsqrZe1IQDT6SxKK-2" target="6eM4hsqrZe1IQDT6SxKK-3">
          <mxGeometry relative="1" as="geometry" />
        </mxCell>
        <mxCell id="6eM4hsqrZe1IQDT6SxKK-2" value="根据table和schema link构建的prompt" style="text;html=1;strokeColor=none;fillColor=none;align=center;verticalAlign=middle;whiteSpace=wrap;rounded=0;" vertex="1" parent="1">
          <mxGeometry x="-508" y="135" width="60" height="30" as="geometry" />
        </mxCell>
        <mxCell id="6eM4hsqrZe1IQDT6SxKK-11" style="edgeStyle=orthogonalEdgeStyle;rounded=0;orthogonalLoop=1;jettySize=auto;html=1;exitX=1;exitY=0.5;exitDx=0;exitDy=0;entryX=0;entryY=0.5;entryDx=0;entryDy=0;" edge="1" parent="1" source="6eM4hsqrZe1IQDT6SxKK-3" target="6eM4hsqrZe1IQDT6SxKK-4">
          <mxGeometry relative="1" as="geometry" />
        </mxCell>
        <mxCell id="6eM4hsqrZe1IQDT6SxKK-3" value="调用LLM" style="rounded=1;whiteSpace=wrap;html=1;absoluteArcSize=1;arcSize=14;strokeWidth=2;" vertex="1" parent="1">
          <mxGeometry x="-398" y="120" width="80" height="60" as="geometry" />
        </mxCell>
        <mxCell id="6eM4hsqrZe1IQDT6SxKK-14" style="edgeStyle=orthogonalEdgeStyle;rounded=0;orthogonalLoop=1;jettySize=auto;html=1;exitX=1;exitY=0.5;exitDx=0;exitDy=0;" edge="1" parent="1" source="6eM4hsqrZe1IQDT6SxKK-4">
          <mxGeometry relative="1" as="geometry">
            <mxPoint x="-160" y="150" as="targetPoint" />
          </mxGeometry>
        </mxCell>
        <mxCell id="6eM4hsqrZe1IQDT6SxKK-4" value="对LLM生成的sql进行后处理" style="rounded=1;whiteSpace=wrap;html=1;absoluteArcSize=1;arcSize=14;strokeWidth=2;" vertex="1" parent="1">
          <mxGeometry x="-278" y="120" width="80" height="60" as="geometry" />
        </mxCell>
        <mxCell id="6eM4hsqrZe1IQDT6SxKK-15" style="edgeStyle=orthogonalEdgeStyle;rounded=0;orthogonalLoop=1;jettySize=auto;html=1;exitX=1;exitY=0.5;exitDx=0;exitDy=0;entryX=0;entryY=0.5;entryDx=0;entryDy=0;" edge="1" parent="1" source="6eM4hsqrZe1IQDT6SxKK-6" target="6eM4hsqrZe1IQDT6SxKK-7">
          <mxGeometry relative="1" as="geometry" />
        </mxCell>
        <mxCell id="6eM4hsqrZe1IQDT6SxKK-16" style="edgeStyle=orthogonalEdgeStyle;rounded=0;orthogonalLoop=1;jettySize=auto;html=1;exitX=1;exitY=0.5;exitDx=0;exitDy=0;entryX=0;entryY=0.5;entryDx=0;entryDy=0;" edge="1" parent="1" source="6eM4hsqrZe1IQDT6SxKK-6" target="6eM4hsqrZe1IQDT6SxKK-8">
          <mxGeometry relative="1" as="geometry" />
        </mxCell>
        <mxCell id="6eM4hsqrZe1IQDT6SxKK-6" value="sql检查：parse sql&lt;br&gt;&lt;br&gt;&lt;div style=&quot;&quot;&gt;检查是否有table中不存在的column&lt;/div&gt;" style="rounded=1;whiteSpace=wrap;html=1;absoluteArcSize=1;arcSize=14;strokeWidth=2;align=left;" vertex="1" parent="1">
          <mxGeometry x="-140" y="120" width="120" height="60" as="geometry" />
        </mxCell>
        <mxCell id="6eM4hsqrZe1IQDT6SxKK-7" value="通过正则检查sql(针对多字段情况)&lt;br&gt;&lt;br&gt;&lt;div style=&quot;&quot;&gt;校验sql中的column description是否在问题中被提到&lt;/div&gt;" style="rounded=1;whiteSpace=wrap;html=1;absoluteArcSize=1;arcSize=14;strokeWidth=2;labelPosition=center;verticalLabelPosition=middle;align=left;verticalAlign=middle;fillColor=#f8cecc;strokeColor=#b85450;" vertex="1" parent="1">
          <mxGeometry x="22" y="62" width="188" height="80" as="geometry" />
        </mxCell>
        <mxCell id="6eM4hsqrZe1IQDT6SxKK-8" value="让大模型检查sql&lt;br&gt;&lt;br&gt;&lt;div style=&quot;&quot;&gt;检查question和摘要信息(column description)是否一致&lt;/div&gt;&lt;div style=&quot;&quot;&gt;(这种方法目前效果没有正则好)&lt;/div&gt;" style="rounded=1;whiteSpace=wrap;html=1;absoluteArcSize=1;arcSize=14;strokeWidth=2;labelPosition=center;verticalLabelPosition=middle;align=left;verticalAlign=middle;" vertex="1" parent="1">
          <mxGeometry x="22" y="157" width="188" height="90" as="geometry" />
        </mxCell>
        <mxCell id="6eM4hsqrZe1IQDT6SxKK-25" style="edgeStyle=orthogonalEdgeStyle;rounded=0;orthogonalLoop=1;jettySize=auto;html=1;exitX=1;exitY=0.5;exitDx=0;exitDy=0;exitPerimeter=0;" edge="1" parent="1" source="6eM4hsqrZe1IQDT6SxKK-13">
          <mxGeometry relative="1" as="geometry">
            <mxPoint x="580" y="156.9310344827586" as="targetPoint" />
          </mxGeometry>
        </mxCell>
        <mxCell id="6eM4hsqrZe1IQDT6SxKK-13" value="校验通过" style="strokeWidth=2;html=1;shape=mxgraph.flowchart.decision;whiteSpace=wrap;" vertex="1" parent="1">
          <mxGeometry x="450" y="107" width="100" height="100" as="geometry" />
        </mxCell>
        <mxCell id="6eM4hsqrZe1IQDT6SxKK-17" value="opt1" style="text;html=1;strokeColor=none;fillColor=none;align=center;verticalAlign=middle;whiteSpace=wrap;rounded=0;" vertex="1" parent="1">
          <mxGeometry x="-22" y="76" width="60" height="30" as="geometry" />
        </mxCell>
        <mxCell id="6eM4hsqrZe1IQDT6SxKK-18" value="opt2" style="text;html=1;strokeColor=none;fillColor=none;align=center;verticalAlign=middle;whiteSpace=wrap;rounded=0;" vertex="1" parent="1">
          <mxGeometry x="-22" y="200" width="60" height="30" as="geometry" />
        </mxCell>
        <mxCell id="6eM4hsqrZe1IQDT6SxKK-21" style="edgeStyle=orthogonalEdgeStyle;rounded=0;orthogonalLoop=1;jettySize=auto;html=1;exitX=0.5;exitY=1;exitDx=0;exitDy=0;exitPerimeter=0;entryX=0.997;entryY=0.608;entryDx=0;entryDy=0;entryPerimeter=0;" edge="1" parent="1" source="6eM4hsqrZe1IQDT6SxKK-13" target="6eM4hsqrZe1IQDT6SxKK-1">
          <mxGeometry relative="1" as="geometry" />
        </mxCell>
        <mxCell id="6eM4hsqrZe1IQDT6SxKK-23" value="End" style="rounded=1;whiteSpace=wrap;html=1;absoluteArcSize=1;arcSize=14;strokeWidth=2;" vertex="1" parent="1">
          <mxGeometry x="581" y="139.5" width="60" height="35" as="geometry" />
        </mxCell>
        <mxCell id="evY21AqS1uZlb9bx6Mw3-1" value="针对少字段情况&lt;br&gt;&lt;br&gt;与schema link结果进行对比" style="rounded=1;whiteSpace=wrap;html=1;absoluteArcSize=1;arcSize=14;strokeWidth=2;align=left;" vertex="1" parent="1">
          <mxGeometry x="250" y="110" width="100" height="80" as="geometry" />
        </mxCell>
      </root>
    </mxGraphModel>
  </diagram>
  <diagram id="9siLBZIe8hQ28VuGpU_c" name="架构">
    <mxGraphModel grid="0" page="0" gridSize="10" guides="1" tooltips="1" connect="1" arrows="1" fold="1" pageScale="1" pageWidth="827" pageHeight="1169" math="0" shadow="0">
      <root>
        <mxCell id="0" />
        <mxCell id="1" parent="0" />
        <mxCell id="OOLZY1k3LrfJozgPJS01-2" value="NL2SQL Modules" style="rounded=0;whiteSpace=wrap;html=1;labelPosition=center;verticalLabelPosition=top;align=center;verticalAlign=bottom;" parent="1" vertex="1">
          <mxGeometry x="-800" y="360" width="610" height="50" as="geometry" />
        </mxCell>
        <mxCell id="jMheBQvStuREgLoN5BEB-2" value="question示例，可编辑" style="verticalLabelPosition=middle;verticalAlign=middle;html=1;shape=mxgraph.basic.rect;fillColor2=none;strokeWidth=1;size=20;indent=5;labelPosition=center;align=center;" parent="1" vertex="1">
          <mxGeometry x="-360" y="-120" width="280" height="40" as="geometry" />
        </mxCell>
        <mxCell id="OOLZY1k3LrfJozgPJS01-3" value="NL2TALBLE" style="rounded=0;whiteSpace=wrap;html=1;" parent="1" vertex="1">
          <mxGeometry x="-780" y="373" width="80" height="20" as="geometry" />
        </mxCell>
        <mxCell id="jMheBQvStuREgLoN5BEB-3" value="sql" style="text;html=1;align=left;verticalAlign=middle;whiteSpace=wrap;rounded=0;" parent="1" vertex="1">
          <mxGeometry x="-360" y="-70" width="60" height="30" as="geometry" />
        </mxCell>
        <mxCell id="OOLZY1k3LrfJozgPJS01-4" value="Schema Link" style="rounded=0;whiteSpace=wrap;html=1;" parent="1" vertex="1">
          <mxGeometry x="-690" y="373" width="80" height="20" as="geometry" />
        </mxCell>
        <mxCell id="jMheBQvStuREgLoN5BEB-4" value="schema link" style="text;html=1;align=left;verticalAlign=middle;whiteSpace=wrap;rounded=0;" parent="1" vertex="1">
          <mxGeometry x="-360" y="-30" width="80" height="30" as="geometry" />
        </mxCell>
        <mxCell id="OOLZY1k3LrfJozgPJS01-5" value="NL2SQL" style="rounded=0;whiteSpace=wrap;html=1;" parent="1" vertex="1">
          <mxGeometry x="-600" y="373" width="80" height="20" as="geometry" />
        </mxCell>
        <mxCell id="jMheBQvStuREgLoN5BEB-5" value="prompt" style="text;html=1;align=left;verticalAlign=middle;whiteSpace=wrap;rounded=0;" parent="1" vertex="1">
          <mxGeometry x="-360" y="10" width="80" height="30" as="geometry" />
        </mxCell>
        <mxCell id="OOLZY1k3LrfJozgPJS01-6" value="Value Mapping" style="rounded=0;whiteSpace=wrap;html=1;" parent="1" vertex="1">
          <mxGeometry x="-510" y="373" width="90" height="20" as="geometry" />
        </mxCell>
        <mxCell id="OOLZY1k3LrfJozgPJS01-7" value="Evaluation" style="rounded=0;whiteSpace=wrap;html=1;" parent="1" vertex="1">
          <mxGeometry x="-410" y="373" width="80" height="20" as="geometry" />
        </mxCell>
        <mxCell id="OOLZY1k3LrfJozgPJS01-8" value="Ablation Experiment Framework" style="rounded=0;whiteSpace=wrap;html=1;" parent="1" vertex="1">
          <mxGeometry x="-320" y="368" width="120" height="30" as="geometry" />
        </mxCell>
        <mxCell id="OOLZY1k3LrfJozgPJS01-10" value="FastChat REST Service" style="rounded=0;whiteSpace=wrap;html=1;labelPosition=center;verticalLabelPosition=top;align=center;verticalAlign=bottom;" parent="1" vertex="1">
          <mxGeometry x="-800" y="450" width="280" height="50" as="geometry" />
        </mxCell>
        <mxCell id="OOLZY1k3LrfJozgPJS01-11" value="Qwen-14B-Chat" style="rounded=0;whiteSpace=wrap;html=1;" parent="1" vertex="1">
          <mxGeometry x="-653" y="460" width="120" height="30" as="geometry" />
        </mxCell>
        <mxCell id="OOLZY1k3LrfJozgPJS01-12" value="Qwen-14B-Chat&lt;br&gt;Lora 微调" style="rounded=0;whiteSpace=wrap;html=1;" parent="1" vertex="1">
          <mxGeometry x="-786" y="460" width="120" height="30" as="geometry" />
        </mxCell>
        <mxCell id="OOLZY1k3LrfJozgPJS01-13" value="REST Service&amp;nbsp;" style="rounded=0;whiteSpace=wrap;html=1;labelPosition=center;verticalLabelPosition=top;align=center;verticalAlign=bottom;" parent="1" vertex="1">
          <mxGeometry x="-480" y="450" width="290" height="50" as="geometry" />
        </mxCell>
        <mxCell id="OOLZY1k3LrfJozgPJS01-14" value="NL2TABLE (Deep Learning)" style="rounded=0;whiteSpace=wrap;html=1;" parent="1" vertex="1">
          <mxGeometry x="-320" y="460" width="120" height="30" as="geometry" />
        </mxCell>
        <mxCell id="OOLZY1k3LrfJozgPJS01-15" value="NL2SQL" style="rounded=0;whiteSpace=wrap;html=1;" parent="1" vertex="1">
          <mxGeometry x="-460" y="460" width="120" height="30" as="geometry" />
        </mxCell>
        <mxCell id="OOLZY1k3LrfJozgPJS01-16" value="WebUI based on Streamlit" style="rounded=0;whiteSpace=wrap;html=1;" parent="1" vertex="1">
          <mxGeometry x="-800" y="536" width="610" height="30" as="geometry" />
        </mxCell>
        <mxCell id="OOLZY1k3LrfJozgPJS01-17" value="" style="shape=flexArrow;endArrow=classic;html=1;rounded=0;endWidth=13.10344827586207;endSize=5.068965517241379;" parent="1" edge="1">
          <mxGeometry width="50" height="50" relative="1" as="geometry">
            <mxPoint x="-660" y="410" as="sourcePoint" />
            <mxPoint x="-660" y="450" as="targetPoint" />
          </mxGeometry>
        </mxCell>
        <mxCell id="OOLZY1k3LrfJozgPJS01-18" value="" style="shape=flexArrow;endArrow=classic;html=1;rounded=0;endWidth=13.10344827586207;endSize=5.068965517241379;" parent="1" edge="1">
          <mxGeometry width="50" height="50" relative="1" as="geometry">
            <mxPoint x="-330" y="450" as="sourcePoint" />
            <mxPoint x="-330" y="410" as="targetPoint" />
          </mxGeometry>
        </mxCell>
        <mxCell id="OOLZY1k3LrfJozgPJS01-20" value="" style="shape=flexArrow;endArrow=classic;html=1;rounded=0;endWidth=13.10344827586207;endSize=5.068965517241379;" parent="1" edge="1">
          <mxGeometry width="50" height="50" relative="1" as="geometry">
            <mxPoint x="-320" y="536" as="sourcePoint" />
            <mxPoint x="-320" y="500" as="targetPoint" />
          </mxGeometry>
        </mxCell>
        <mxCell id="uQN7HlnDei25BFkux8Wa-1" value="" style="group" vertex="1" connectable="0" parent="1">
          <mxGeometry x="-1042" y="390" width="200" height="170" as="geometry" />
        </mxCell>
        <mxCell id="stU8NP-q0cujm16gA073-2" value="大模型微调环境" style="rounded=0;whiteSpace=wrap;html=1;labelPosition=center;verticalLabelPosition=top;align=center;verticalAlign=bottom;" parent="uQN7HlnDei25BFkux8Wa-1" vertex="1">
          <mxGeometry width="200" height="170" as="geometry" />
        </mxCell>
        <mxCell id="stU8NP-q0cujm16gA073-3" value="Data Process" style="rounded=0;whiteSpace=wrap;html=1;" parent="uQN7HlnDei25BFkux8Wa-1" vertex="1">
          <mxGeometry x="20" y="10" width="160" height="30" as="geometry" />
        </mxCell>
        <mxCell id="stU8NP-q0cujm16gA073-5" value="Supervised Fine-Tuning" style="rounded=0;whiteSpace=wrap;html=1;" parent="uQN7HlnDei25BFkux8Wa-1" vertex="1">
          <mxGeometry x="20" y="50" width="160" height="30" as="geometry" />
        </mxCell>
        <mxCell id="stU8NP-q0cujm16gA073-6" value="Prediction" style="rounded=0;whiteSpace=wrap;html=1;" parent="uQN7HlnDei25BFkux8Wa-1" vertex="1">
          <mxGeometry x="20" y="90" width="160" height="30" as="geometry" />
        </mxCell>
        <mxCell id="stU8NP-q0cujm16gA073-7" value="Evaluation" style="rounded=0;whiteSpace=wrap;html=1;" parent="uQN7HlnDei25BFkux8Wa-1" vertex="1">
          <mxGeometry x="20" y="130" width="160" height="30" as="geometry" />
        </mxCell>
        <mxCell id="uQN7HlnDei25BFkux8Wa-2" style="edgeStyle=orthogonalEdgeStyle;rounded=0;orthogonalLoop=1;jettySize=auto;html=1;exitX=1;exitY=0.5;exitDx=0;exitDy=0;entryX=0;entryY=0.5;entryDx=0;entryDy=0;" edge="1" parent="1" source="stU8NP-q0cujm16gA073-2" target="OOLZY1k3LrfJozgPJS01-12">
          <mxGeometry relative="1" as="geometry" />
        </mxCell>
      </root>
    </mxGraphModel>
  </diagram>
  <diagram id="nOHp0wZEgHo7EPcH6M7I" name="deployment">
    <mxGraphModel dx="974" dy="712" grid="0" gridSize="10" guides="1" tooltips="1" connect="1" arrows="1" fold="1" page="0" pageScale="1" pageWidth="827" pageHeight="1169" math="0" shadow="0">
      <root>
        <mxCell id="0" />
        <mxCell id="1" parent="0" />
        <mxCell id="z-O_ZRAMOToWWVwHlScH-1" value="物理机" style="rounded=0;whiteSpace=wrap;html=1;labelPosition=center;verticalLabelPosition=top;align=center;verticalAlign=bottom;" parent="1" vertex="1">
          <mxGeometry x="-220" width="240" height="160" as="geometry" />
        </mxCell>
        <mxCell id="z-O_ZRAMOToWWVwHlScH-4" value="GPU 1" style="verticalLabelPosition=middle;verticalAlign=middle;html=1;shape=mxgraph.basic.patternFillRect;fillStyle=hor;step=5;fillStrokeWidth=0.2;fillStrokeColor=#dddddd;labelPosition=center;align=center;fillColor=#f5f5f5;fontColor=#333333;strokeColor=#666666;" parent="1" vertex="1">
          <mxGeometry x="-200" y="10" width="60" height="20" as="geometry" />
        </mxCell>
        <mxCell id="z-O_ZRAMOToWWVwHlScH-5" value="GPU 2" style="verticalLabelPosition=middle;verticalAlign=middle;html=1;shape=mxgraph.basic.patternFillRect;fillStyle=hor;step=5;fillStrokeWidth=0.2;fillStrokeColor=#dddddd;labelPosition=center;align=center;fillColor=#f5f5f5;fontColor=#333333;strokeColor=#666666;" parent="1" vertex="1">
          <mxGeometry x="-130" y="10" width="60" height="20" as="geometry" />
        </mxCell>
        <mxCell id="z-O_ZRAMOToWWVwHlScH-6" value="GPU 3" style="verticalLabelPosition=middle;verticalAlign=middle;html=1;shape=mxgraph.basic.patternFillRect;fillStyle=hor;step=5;fillStrokeWidth=0.2;fillStrokeColor=#dddddd;labelPosition=center;align=center;fillColor=#f5f5f5;fontColor=#333333;strokeColor=#666666;" parent="1" vertex="1">
          <mxGeometry x="-60" y="10" width="60" height="20" as="geometry" />
        </mxCell>
        <mxCell id="z-O_ZRAMOToWWVwHlScH-10" value="Docker0" style="rounded=0;whiteSpace=wrap;html=1;labelPosition=center;verticalLabelPosition=bottom;align=center;verticalAlign=top;" parent="1" vertex="1">
          <mxGeometry x="-200" y="50" width="60" height="80" as="geometry" />
        </mxCell>
        <mxCell id="z-O_ZRAMOToWWVwHlScH-12" value="NL2SQL&lt;br&gt;Modules" style="rounded=0;whiteSpace=wrap;html=1;" parent="1" vertex="1">
          <mxGeometry x="-196" y="88" width="52" height="33" as="geometry" />
        </mxCell>
        <mxCell id="z-O_ZRAMOToWWVwHlScH-13" value="LLM" style="rounded=0;whiteSpace=wrap;html=1;" parent="1" vertex="1">
          <mxGeometry x="-196" y="59" width="52" height="20" as="geometry" />
        </mxCell>
        <mxCell id="z-O_ZRAMOToWWVwHlScH-14" value="Docker1" style="rounded=0;whiteSpace=wrap;html=1;labelPosition=center;verticalLabelPosition=bottom;align=center;verticalAlign=top;" parent="1" vertex="1">
          <mxGeometry x="-130" y="50" width="60" height="80" as="geometry" />
        </mxCell>
        <mxCell id="z-O_ZRAMOToWWVwHlScH-15" value="Docker2" style="rounded=0;whiteSpace=wrap;html=1;labelPosition=center;verticalLabelPosition=bottom;align=center;verticalAlign=top;" parent="1" vertex="1">
          <mxGeometry x="-60" y="50" width="60" height="80" as="geometry" />
        </mxCell>
        <mxCell id="z-O_ZRAMOToWWVwHlScH-16" value="&lt;font style=&quot;font-size: 11px;&quot;&gt;Lora Finetuned LLM&lt;/font&gt;" style="rounded=0;whiteSpace=wrap;html=1;" parent="1" vertex="1">
          <mxGeometry x="-126" y="60" width="52" height="60" as="geometry" />
        </mxCell>
        <mxCell id="z-O_ZRAMOToWWVwHlScH-17" value="&lt;font style=&quot;font-size: 11px;&quot;&gt;Lora Finetuned Env&lt;/font&gt;" style="rounded=0;whiteSpace=wrap;html=1;" parent="1" vertex="1">
          <mxGeometry x="-56" y="59" width="52" height="60" as="geometry" />
        </mxCell>
        <mxCell id="z-O_ZRAMOToWWVwHlScH-20" style="edgeStyle=orthogonalEdgeStyle;rounded=0;orthogonalLoop=1;jettySize=auto;html=1;exitX=0.5;exitY=0;exitDx=0;exitDy=0;entryX=0.5;entryY=1;entryDx=0;entryDy=0;entryPerimeter=0;" parent="1" source="z-O_ZRAMOToWWVwHlScH-10" target="z-O_ZRAMOToWWVwHlScH-4" edge="1">
          <mxGeometry relative="1" as="geometry" />
        </mxCell>
        <mxCell id="z-O_ZRAMOToWWVwHlScH-21" style="edgeStyle=orthogonalEdgeStyle;rounded=0;orthogonalLoop=1;jettySize=auto;html=1;exitX=0.5;exitY=0;exitDx=0;exitDy=0;entryX=0.5;entryY=1;entryDx=0;entryDy=0;entryPerimeter=0;" parent="1" source="z-O_ZRAMOToWWVwHlScH-14" target="z-O_ZRAMOToWWVwHlScH-5" edge="1">
          <mxGeometry relative="1" as="geometry" />
        </mxCell>
        <mxCell id="z-O_ZRAMOToWWVwHlScH-22" style="edgeStyle=orthogonalEdgeStyle;rounded=0;orthogonalLoop=1;jettySize=auto;html=1;exitX=0.5;exitY=0;exitDx=0;exitDy=0;entryX=0.862;entryY=0.188;entryDx=0;entryDy=0;entryPerimeter=0;" parent="1" source="z-O_ZRAMOToWWVwHlScH-15" target="z-O_ZRAMOToWWVwHlScH-1" edge="1">
          <mxGeometry relative="1" as="geometry" />
        </mxCell>
      </root>
    </mxGraphModel>
  </diagram>
  <diagram id="zAqoNJptGTZ1LPKMn9Af" name="数据安全分级">
    <mxGraphModel grid="0" page="0" gridSize="10" guides="1" tooltips="1" connect="1" arrows="1" fold="1" pageScale="1" pageWidth="827" pageHeight="1169" math="0" shadow="0">
      <root>
        <mxCell id="0" />
        <mxCell id="1" parent="0" />
        <mxCell id="9pslfWz4mMyuYnzJYAaZ-15" value="确定最佳Prompt模板" style="rounded=0;whiteSpace=wrap;html=1;labelPosition=center;verticalLabelPosition=top;align=center;verticalAlign=bottom;" vertex="1" parent="1">
          <mxGeometry x="-380" y="-109" width="380" height="139" as="geometry" />
        </mxCell>
        <mxCell id="9pslfWz4mMyuYnzJYAaZ-1" value="Prompt模板库" style="shape=cylinder3;whiteSpace=wrap;html=1;boundedLbl=1;backgroundOutline=1;size=6.999999999999957;" vertex="1" parent="1">
          <mxGeometry x="-360" y="-90" width="90" height="40" as="geometry" />
        </mxCell>
        <mxCell id="9pslfWz4mMyuYnzJYAaZ-2" value="标注数据" style="shape=cylinder3;whiteSpace=wrap;html=1;boundedLbl=1;backgroundOutline=1;size=6.999999999999957;" vertex="1" parent="1">
          <mxGeometry x="-240" y="-90" width="90" height="40" as="geometry" />
        </mxCell>
        <mxCell id="9pslfWz4mMyuYnzJYAaZ-4" value="抽出N条数据作为数据池" style="rounded=0;whiteSpace=wrap;html=1;" vertex="1" parent="1">
          <mxGeometry x="-110" y="-89" width="80" height="40" as="geometry" />
        </mxCell>
        <mxCell id="9pslfWz4mMyuYnzJYAaZ-8" value="" style="endArrow=classic;html=1;rounded=0;exitX=1;exitY=0.5;exitDx=0;exitDy=0;exitPerimeter=0;entryX=0;entryY=0.5;entryDx=0;entryDy=0;" edge="1" parent="1" source="9pslfWz4mMyuYnzJYAaZ-2" target="9pslfWz4mMyuYnzJYAaZ-4">
          <mxGeometry width="50" height="50" relative="1" as="geometry">
            <mxPoint x="-150" y="100" as="sourcePoint" />
            <mxPoint x="-100" y="50" as="targetPoint" />
          </mxGeometry>
        </mxCell>
        <mxCell id="9pslfWz4mMyuYnzJYAaZ-20" style="edgeStyle=orthogonalEdgeStyle;rounded=0;orthogonalLoop=1;jettySize=auto;html=1;exitX=1;exitY=0.5;exitDx=0;exitDy=0;entryX=0;entryY=0.75;entryDx=0;entryDy=0;" edge="1" parent="1" source="9pslfWz4mMyuYnzJYAaZ-9" target="9pslfWz4mMyuYnzJYAaZ-16">
          <mxGeometry relative="1" as="geometry" />
        </mxCell>
        <mxCell id="9pslfWz4mMyuYnzJYAaZ-9" value="Zeroshot条件下，基于N条数据，确定最佳prompt模板" style="rounded=0;whiteSpace=wrap;html=1;" vertex="1" parent="1">
          <mxGeometry x="-360" y="-20" width="330" height="30" as="geometry" />
        </mxCell>
        <mxCell id="9pslfWz4mMyuYnzJYAaZ-10" value="" style="endArrow=classic;html=1;rounded=0;exitX=0.5;exitY=1;exitDx=0;exitDy=0;exitPerimeter=0;entryX=0.136;entryY=-0.052;entryDx=0;entryDy=0;entryPerimeter=0;" edge="1" parent="1" source="9pslfWz4mMyuYnzJYAaZ-1" target="9pslfWz4mMyuYnzJYAaZ-9">
          <mxGeometry width="50" height="50" relative="1" as="geometry">
            <mxPoint x="-150" y="100" as="sourcePoint" />
            <mxPoint x="-100" y="50" as="targetPoint" />
          </mxGeometry>
        </mxCell>
        <mxCell id="9pslfWz4mMyuYnzJYAaZ-13" value="" style="endArrow=classic;html=1;rounded=0;exitX=0.5;exitY=1;exitDx=0;exitDy=0;exitPerimeter=0;entryX=0.136;entryY=-0.052;entryDx=0;entryDy=0;entryPerimeter=0;" edge="1" parent="1">
          <mxGeometry width="50" height="50" relative="1" as="geometry">
            <mxPoint x="-69" y="-47" as="sourcePoint" />
            <mxPoint x="-69" y="-19" as="targetPoint" />
          </mxGeometry>
        </mxCell>
        <mxCell id="9pslfWz4mMyuYnzJYAaZ-16" value="确定最佳示例" style="rounded=0;whiteSpace=wrap;html=1;labelPosition=center;verticalLabelPosition=top;align=center;verticalAlign=bottom;" vertex="1" parent="1">
          <mxGeometry x="80" y="-110" width="220" height="140" as="geometry" />
        </mxCell>
        <mxCell id="9pslfWz4mMyuYnzJYAaZ-18" value="" style="endArrow=classic;html=1;rounded=0;entryX=-0.008;entryY=0.3;entryDx=0;entryDy=0;entryPerimeter=0;" edge="1" parent="1" target="9pslfWz4mMyuYnzJYAaZ-16">
          <mxGeometry width="50" height="50" relative="1" as="geometry">
            <mxPoint x="-30.003463687151026" y="-69" as="sourcePoint" />
            <mxPoint x="10.219999999999999" y="-49" as="targetPoint" />
          </mxGeometry>
        </mxCell>
        <mxCell id="9pslfWz4mMyuYnzJYAaZ-21" value="将数据池划分为A、B两部分" style="rounded=0;whiteSpace=wrap;html=1;" vertex="1" parent="1">
          <mxGeometry x="105" y="-100" width="175" height="30" as="geometry" />
        </mxCell>
        <mxCell id="9pslfWz4mMyuYnzJYAaZ-22" value="基于相似度，从A中选取k条示例" style="rounded=0;whiteSpace=wrap;html=1;" vertex="1" parent="1">
          <mxGeometry x="105" y="-55" width="175" height="30" as="geometry" />
        </mxCell>
        <mxCell id="9pslfWz4mMyuYnzJYAaZ-23" value="基于B进行测试，确定最佳k值" style="rounded=0;whiteSpace=wrap;html=1;" vertex="1" parent="1">
          <mxGeometry x="105" y="-10" width="175" height="30" as="geometry" />
        </mxCell>
        <mxCell id="9pslfWz4mMyuYnzJYAaZ-24" value="动态构建Prompt" style="rounded=0;whiteSpace=wrap;html=1;labelPosition=center;verticalLabelPosition=top;align=center;verticalAlign=bottom;" vertex="1" parent="1">
          <mxGeometry x="-375" y="70" width="675" height="60" as="geometry" />
        </mxCell>
        <mxCell id="9pslfWz4mMyuYnzJYAaZ-25" value="Prompt模版" style="rounded=0;whiteSpace=wrap;html=1;" vertex="1" parent="1">
          <mxGeometry x="-255" y="85" width="120" height="30" as="geometry" />
        </mxCell>
        <mxCell id="9pslfWz4mMyuYnzJYAaZ-26" value="Prompt示例" style="rounded=0;whiteSpace=wrap;html=1;" vertex="1" parent="1">
          <mxGeometry x="40" y="85" width="120" height="30" as="geometry" />
        </mxCell>
        <mxCell id="9pslfWz4mMyuYnzJYAaZ-28" style="edgeStyle=orthogonalEdgeStyle;rounded=0;orthogonalLoop=1;jettySize=auto;html=1;exitX=0.5;exitY=1;exitDx=0;exitDy=0;entryX=0.273;entryY=-0.042;entryDx=0;entryDy=0;entryPerimeter=0;" edge="1" parent="1" source="9pslfWz4mMyuYnzJYAaZ-15" target="9pslfWz4mMyuYnzJYAaZ-24">
          <mxGeometry relative="1" as="geometry" />
        </mxCell>
        <mxCell id="9pslfWz4mMyuYnzJYAaZ-31" value="" style="endArrow=classic;html=1;rounded=0;exitX=0.5;exitY=1;exitDx=0;exitDy=0;" edge="1" parent="1" source="9pslfWz4mMyuYnzJYAaZ-16">
          <mxGeometry width="50" height="50" relative="1" as="geometry">
            <mxPoint x="-60" y="100" as="sourcePoint" />
            <mxPoint x="190" y="70" as="targetPoint" />
          </mxGeometry>
        </mxCell>
      </root>
    </mxGraphModel>
  </diagram>
  <diagram name="progress overall process" id="dx33O8K8o7QGs2WDxq8M">
    <mxGraphModel grid="0" page="0" gridSize="10" guides="1" tooltips="1" connect="1" arrows="1" fold="1" pageScale="1" pageWidth="827" pageHeight="1169" math="0" shadow="0">
      <root>
        <mxCell id="0" />
        <mxCell id="1" parent="0" />
        <mxCell id="Jo4BSiBk1LysVtSisImH-1" value="根据question定位数据库表" style="rounded=1;whiteSpace=wrap;html=1;absoluteArcSize=1;arcSize=14;strokeWidth=2;labelPosition=center;verticalLabelPosition=top;align=center;verticalAlign=bottom;" parent="1" vertex="1">
          <mxGeometry x="160" y="120" width="120" height="80" as="geometry" />
        </mxCell>
        <mxCell id="Jo4BSiBk1LysVtSisImH-2" value="&lt;font style=&quot;font-size: 16px;&quot;&gt;question&lt;/font&gt;" style="text;html=1;strokeColor=none;fillColor=none;align=center;verticalAlign=middle;whiteSpace=wrap;rounded=0;" parent="1" vertex="1">
          <mxGeometry x="36" y="136" width="70" height="45" as="geometry" />
        </mxCell>
        <mxCell id="Jo4BSiBk1LysVtSisImH-3" value="" style="endArrow=classic;html=1;rounded=0;" parent="1" edge="1">
          <mxGeometry width="50" height="50" relative="1" as="geometry">
            <mxPoint x="111" y="160" as="sourcePoint" />
            <mxPoint x="159" y="160" as="targetPoint" />
          </mxGeometry>
        </mxCell>
        <mxCell id="Jo4BSiBk1LysVtSisImH-5" value="深度学习方法" style="rounded=1;whiteSpace=wrap;html=1;absoluteArcSize=1;arcSize=14;strokeWidth=2;fillColor=#008a00;strokeColor=#005700;fontColor=#ffffff;" parent="1" vertex="1">
          <mxGeometry x="175" y="126" width="90" height="30" as="geometry" />
        </mxCell>
        <mxCell id="Jo4BSiBk1LysVtSisImH-6" value="大模型方法" style="rounded=1;whiteSpace=wrap;html=1;absoluteArcSize=1;arcSize=14;strokeWidth=2;fillColor=#60a917;fontColor=#ffffff;strokeColor=#2D7600;" parent="1" vertex="1">
          <mxGeometry x="175" y="162" width="90" height="30" as="geometry" />
        </mxCell>
        <mxCell id="Jo4BSiBk1LysVtSisImH-14" style="edgeStyle=orthogonalEdgeStyle;rounded=0;orthogonalLoop=1;jettySize=auto;html=1;exitX=1;exitY=0.5;exitDx=0;exitDy=0;entryX=0;entryY=0.5;entryDx=0;entryDy=0;" parent="1" source="Jo4BSiBk1LysVtSisImH-8" target="Jo4BSiBk1LysVtSisImH-11" edge="1">
          <mxGeometry relative="1" as="geometry" />
        </mxCell>
        <mxCell id="Jo4BSiBk1LysVtSisImH-8" value="模式链接" style="rounded=1;whiteSpace=wrap;html=1;absoluteArcSize=1;arcSize=14;strokeWidth=2;labelPosition=center;verticalLabelPosition=top;align=center;verticalAlign=bottom;" parent="1" vertex="1">
          <mxGeometry x="321" y="120" width="110" height="80" as="geometry" />
        </mxCell>
        <mxCell id="Jo4BSiBk1LysVtSisImH-9" value="Zeroshot" style="rounded=1;whiteSpace=wrap;html=1;absoluteArcSize=1;arcSize=14;strokeWidth=2;fillColor=#60a917;fontColor=#ffffff;strokeColor=#2D7600;" parent="1" vertex="1">
          <mxGeometry x="337" y="126" width="80" height="30" as="geometry" />
        </mxCell>
        <mxCell id="Jo4BSiBk1LysVtSisImH-10" value="Oneshot" style="rounded=1;whiteSpace=wrap;html=1;absoluteArcSize=1;arcSize=14;strokeWidth=2;fillColor=#60a917;fontColor=#ffffff;strokeColor=#2D7600;" parent="1" vertex="1">
          <mxGeometry x="336" y="162" width="80" height="30" as="geometry" />
        </mxCell>
        <mxCell id="Jo4BSiBk1LysVtSisImH-17" style="edgeStyle=orthogonalEdgeStyle;rounded=0;orthogonalLoop=1;jettySize=auto;html=1;exitX=1;exitY=0.5;exitDx=0;exitDy=0;entryX=0;entryY=0.5;entryDx=0;entryDy=0;" parent="1" source="Jo4BSiBk1LysVtSisImH-11" target="Jo4BSiBk1LysVtSisImH-15" edge="1">
          <mxGeometry relative="1" as="geometry" />
        </mxCell>
        <mxCell id="Jo4BSiBk1LysVtSisImH-11" value="构建Prompt，调用大模型" style="rounded=1;whiteSpace=wrap;html=1;absoluteArcSize=1;arcSize=14;strokeWidth=2;fillColor=#008a00;fontColor=#ffffff;strokeColor=#005700;" parent="1" vertex="1">
          <mxGeometry x="470" y="120" width="100" height="80" as="geometry" />
        </mxCell>
        <mxCell id="Jo4BSiBk1LysVtSisImH-12" value="" style="endArrow=classic;html=1;rounded=0;entryX=0;entryY=0.5;entryDx=0;entryDy=0;exitX=1;exitY=0.5;exitDx=0;exitDy=0;" parent="1" source="Jo4BSiBk1LysVtSisImH-1" target="Jo4BSiBk1LysVtSisImH-8" edge="1">
          <mxGeometry width="50" height="50" relative="1" as="geometry">
            <mxPoint x="280" y="162" as="sourcePoint" />
            <mxPoint x="330" y="112" as="targetPoint" />
          </mxGeometry>
        </mxCell>
        <mxCell id="Jo4BSiBk1LysVtSisImH-15" value="对大模型生成的sql进行校验" style="rounded=1;whiteSpace=wrap;html=1;absoluteArcSize=1;arcSize=14;strokeWidth=2;labelPosition=center;verticalLabelPosition=top;align=center;verticalAlign=bottom;" parent="1" vertex="1">
          <mxGeometry x="610" y="120" width="100" height="80" as="geometry" />
        </mxCell>
        <mxCell id="Jo4BSiBk1LysVtSisImH-18" value="用LLM进行校验" style="rounded=1;whiteSpace=wrap;html=1;absoluteArcSize=1;arcSize=14;strokeWidth=2;fillColor=#fff2cc;strokeColor=#d6b656;" parent="1" vertex="1">
          <mxGeometry x="620" y="126" width="80" height="30" as="geometry" />
        </mxCell>
        <mxCell id="Jo4BSiBk1LysVtSisImH-19" value="用正则表达式校验" style="rounded=1;whiteSpace=wrap;html=1;absoluteArcSize=1;arcSize=14;strokeWidth=2;fillColor=#60a917;fontColor=#ffffff;strokeColor=#2D7600;" parent="1" vertex="1">
          <mxGeometry x="620" y="162" width="80" height="30" as="geometry" />
        </mxCell>
        <mxCell id="Jo4BSiBk1LysVtSisImH-24" style="edgeStyle=orthogonalEdgeStyle;rounded=0;orthogonalLoop=1;jettySize=auto;html=1;exitX=1;exitY=0.5;exitDx=0;exitDy=0;exitPerimeter=0;entryX=0;entryY=0.5;entryDx=0;entryDy=0;" parent="1" source="Jo4BSiBk1LysVtSisImH-20" target="Jo4BSiBk1LysVtSisImH-23" edge="1">
          <mxGeometry relative="1" as="geometry" />
        </mxCell>
        <mxCell id="Jo4BSiBk1LysVtSisImH-29" style="edgeStyle=orthogonalEdgeStyle;rounded=0;orthogonalLoop=1;jettySize=auto;html=1;exitX=0.5;exitY=1;exitDx=0;exitDy=0;exitPerimeter=0;entryX=1;entryY=0.5;entryDx=0;entryDy=0;" parent="1" source="Jo4BSiBk1LysVtSisImH-20" target="Jo4BSiBk1LysVtSisImH-28" edge="1">
          <mxGeometry relative="1" as="geometry" />
        </mxCell>
        <mxCell id="Jo4BSiBk1LysVtSisImH-20" value="校验通过" style="strokeWidth=2;html=1;shape=mxgraph.flowchart.decision;whiteSpace=wrap;" parent="1" vertex="1">
          <mxGeometry x="750" y="140" width="100" height="40" as="geometry" />
        </mxCell>
        <mxCell id="Jo4BSiBk1LysVtSisImH-22" style="edgeStyle=orthogonalEdgeStyle;rounded=0;orthogonalLoop=1;jettySize=auto;html=1;exitX=1;exitY=0.5;exitDx=0;exitDy=0;entryX=0;entryY=0.5;entryDx=0;entryDy=0;entryPerimeter=0;" parent="1" source="Jo4BSiBk1LysVtSisImH-15" target="Jo4BSiBk1LysVtSisImH-20" edge="1">
          <mxGeometry relative="1" as="geometry" />
        </mxCell>
        <mxCell id="Jo4BSiBk1LysVtSisImH-27" style="edgeStyle=orthogonalEdgeStyle;rounded=0;orthogonalLoop=1;jettySize=auto;html=1;exitX=1;exitY=0.5;exitDx=0;exitDy=0;entryX=0;entryY=0.5;entryDx=0;entryDy=0;" parent="1" source="Jo4BSiBk1LysVtSisImH-23" target="Jo4BSiBk1LysVtSisImH-26" edge="1">
          <mxGeometry relative="1" as="geometry" />
        </mxCell>
        <mxCell id="Jo4BSiBk1LysVtSisImH-23" value="对sql中的value进行值映射" style="rounded=1;whiteSpace=wrap;html=1;absoluteArcSize=1;arcSize=14;strokeWidth=2;fillColor=#008a00;fontColor=#ffffff;strokeColor=#005700;" parent="1" vertex="1">
          <mxGeometry x="890" y="120" width="90" height="80" as="geometry" />
        </mxCell>
        <mxCell id="Jo4BSiBk1LysVtSisImH-25" value="Y" style="text;html=1;strokeColor=none;fillColor=none;align=center;verticalAlign=middle;whiteSpace=wrap;rounded=0;" parent="1" vertex="1">
          <mxGeometry x="860" y="136" width="20" height="30" as="geometry" />
        </mxCell>
        <mxCell id="Jo4BSiBk1LysVtSisImH-26" value="End" style="rounded=1;whiteSpace=wrap;html=1;absoluteArcSize=1;arcSize=14;strokeWidth=2;" parent="1" vertex="1">
          <mxGeometry x="1020" y="145" width="60" height="30" as="geometry" />
        </mxCell>
        <mxCell id="Jo4BSiBk1LysVtSisImH-30" style="edgeStyle=orthogonalEdgeStyle;rounded=0;orthogonalLoop=1;jettySize=auto;html=1;exitX=0;exitY=0.5;exitDx=0;exitDy=0;" parent="1" source="Jo4BSiBk1LysVtSisImH-28" edge="1">
          <mxGeometry relative="1" as="geometry">
            <mxPoint x="450" y="160" as="targetPoint" />
          </mxGeometry>
        </mxCell>
        <mxCell id="Jo4BSiBk1LysVtSisImH-28" value="根据校验结果修正Prompt" style="rounded=1;whiteSpace=wrap;html=1;absoluteArcSize=1;arcSize=14;strokeWidth=2;fillColor=#60a917;fontColor=#ffffff;strokeColor=#2D7600;" parent="1" vertex="1">
          <mxGeometry x="540" y="240" width="100" height="40" as="geometry" />
        </mxCell>
        <mxCell id="Jo4BSiBk1LysVtSisImH-31" value="N" style="text;html=1;strokeColor=none;fillColor=none;align=center;verticalAlign=middle;whiteSpace=wrap;rounded=0;" parent="1" vertex="1">
          <mxGeometry x="710" y="235" width="20" height="30" as="geometry" />
        </mxCell>
      </root>
    </mxGraphModel>
  </diagram>
  <diagram name="progress NL2TABLE" id="zf3nWWjbEvHqeJ3R-sJ3">
    <mxGraphModel grid="0" page="0" gridSize="10" guides="1" tooltips="1" connect="1" arrows="1" fold="1" pageScale="1" pageWidth="827" pageHeight="1169" math="0" shadow="0">
      <root>
        <mxCell id="0" />
        <mxCell id="1" parent="0" />
        <mxCell id="-ZHznQ1eW0HuOb2Uy_OW-1" value="&lt;font style=&quot;font-size: 16px;&quot;&gt;基于LLM的NL2TABLE&lt;/font&gt;" style="text;html=1;strokeColor=none;fillColor=none;align=center;verticalAlign=middle;whiteSpace=wrap;rounded=0;fontSize=15;" parent="1" vertex="1">
          <mxGeometry x="-2010" y="-2820" width="209" height="30" as="geometry" />
        </mxCell>
        <mxCell id="-ZHznQ1eW0HuOb2Uy_OW-2" style="edgeStyle=orthogonalEdgeStyle;rounded=0;orthogonalLoop=1;jettySize=auto;html=1;exitX=1;exitY=0.5;exitDx=0;exitDy=0;entryX=0;entryY=0.5;entryDx=0;entryDy=0;" parent="1" source="-ZHznQ1eW0HuOb2Uy_OW-3" target="-ZHznQ1eW0HuOb2Uy_OW-5" edge="1">
          <mxGeometry relative="1" as="geometry" />
        </mxCell>
        <mxCell id="-ZHznQ1eW0HuOb2Uy_OW-3" value="&lt;font style=&quot;font-size: 16px;&quot;&gt;question&lt;/font&gt;" style="text;html=1;strokeColor=none;fillColor=none;align=center;verticalAlign=middle;whiteSpace=wrap;rounded=0;" parent="1" vertex="1">
          <mxGeometry x="-1984" y="-2725" width="60" height="30" as="geometry" />
        </mxCell>
        <mxCell id="-ZHznQ1eW0HuOb2Uy_OW-4" style="edgeStyle=orthogonalEdgeStyle;rounded=0;orthogonalLoop=1;jettySize=auto;html=1;exitX=1;exitY=0.5;exitDx=0;exitDy=0;entryX=0;entryY=0.5;entryDx=0;entryDy=0;" parent="1" source="-ZHznQ1eW0HuOb2Uy_OW-5" target="-ZHznQ1eW0HuOb2Uy_OW-6" edge="1">
          <mxGeometry relative="1" as="geometry" />
        </mxCell>
        <mxCell id="-ZHznQ1eW0HuOb2Uy_OW-5" value="动态构建Prompt&lt;br&gt;&lt;br&gt;根据question中的关键字，初步划分为大额、小额、止付、网银四个类型，每个类型对应几张表&lt;br&gt;以此缩小搜索范围" style="rounded=1;whiteSpace=wrap;html=1;absoluteArcSize=1;arcSize=14;strokeWidth=2;align=left;fillColor=#d5e8d4;strokeColor=#82b366;" parent="1" vertex="1">
          <mxGeometry x="-1880" y="-2760" width="185" height="100" as="geometry" />
        </mxCell>
        <mxCell id="-ZHznQ1eW0HuOb2Uy_OW-6" value="调用LLM" style="rounded=1;whiteSpace=wrap;html=1;absoluteArcSize=1;arcSize=14;strokeWidth=2;" parent="1" vertex="1">
          <mxGeometry x="-1640" y="-2760" width="100" height="100" as="geometry" />
        </mxCell>
        <mxCell id="-ZHznQ1eW0HuOb2Uy_OW-7" style="edgeStyle=orthogonalEdgeStyle;rounded=0;orthogonalLoop=1;jettySize=auto;html=1;exitX=0.5;exitY=1;exitDx=0;exitDy=0;exitPerimeter=0;entryX=0;entryY=0.5;entryDx=0;entryDy=0;" parent="1" source="-ZHznQ1eW0HuOb2Uy_OW-9" target="-ZHznQ1eW0HuOb2Uy_OW-6" edge="1">
          <mxGeometry relative="1" as="geometry">
            <Array as="points">
              <mxPoint x="-1415" y="-2640" />
              <mxPoint x="-1660" y="-2640" />
              <mxPoint x="-1660" y="-2710" />
            </Array>
          </mxGeometry>
        </mxCell>
        <mxCell id="-ZHznQ1eW0HuOb2Uy_OW-8" style="edgeStyle=orthogonalEdgeStyle;rounded=0;orthogonalLoop=1;jettySize=auto;html=1;exitX=1;exitY=0.5;exitDx=0;exitDy=0;exitPerimeter=0;entryX=0;entryY=0.5;entryDx=0;entryDy=0;" parent="1" source="-ZHznQ1eW0HuOb2Uy_OW-9" target="-ZHznQ1eW0HuOb2Uy_OW-13" edge="1">
          <mxGeometry relative="1" as="geometry" />
        </mxCell>
        <mxCell id="-ZHznQ1eW0HuOb2Uy_OW-9" value="LLM返回结果是否符合#AAAA2222#的形式？" style="strokeWidth=2;html=1;shape=mxgraph.flowchart.decision;whiteSpace=wrap;fillColor=#008a00;fontColor=#ffffff;strokeColor=#005700;" parent="1" vertex="1">
          <mxGeometry x="-1490" y="-2760" width="150" height="100" as="geometry" />
        </mxCell>
        <mxCell id="-ZHznQ1eW0HuOb2Uy_OW-10" style="edgeStyle=orthogonalEdgeStyle;rounded=0;orthogonalLoop=1;jettySize=auto;html=1;exitX=1;exitY=0.5;exitDx=0;exitDy=0;entryX=0;entryY=0.5;entryDx=0;entryDy=0;entryPerimeter=0;" parent="1" source="-ZHznQ1eW0HuOb2Uy_OW-6" target="-ZHznQ1eW0HuOb2Uy_OW-9" edge="1">
          <mxGeometry relative="1" as="geometry" />
        </mxCell>
        <mxCell id="-ZHznQ1eW0HuOb2Uy_OW-11" value="N" style="text;html=1;strokeColor=none;fillColor=none;align=center;verticalAlign=middle;whiteSpace=wrap;rounded=0;" parent="1" vertex="1">
          <mxGeometry x="-1530" y="-2670" width="20" height="30" as="geometry" />
        </mxCell>
        <mxCell id="-ZHznQ1eW0HuOb2Uy_OW-12" style="edgeStyle=orthogonalEdgeStyle;rounded=0;orthogonalLoop=1;jettySize=auto;html=1;exitX=1;exitY=0.5;exitDx=0;exitDy=0;" parent="1" source="-ZHznQ1eW0HuOb2Uy_OW-13" target="-ZHznQ1eW0HuOb2Uy_OW-14" edge="1">
          <mxGeometry relative="1" as="geometry" />
        </mxCell>
        <mxCell id="-ZHznQ1eW0HuOb2Uy_OW-13" value="根据错误经验修正大模型结果&lt;br&gt;&lt;div style=&quot;&quot;&gt;&lt;br&gt;&lt;/div&gt;&lt;div style=&quot;&quot;&gt;eg:预测结果为BEOT0102，且question中含有总金额，总包数，总笔数的，将结果修正为BEOT0101;问题中含有”冲正“的，将结果修复为BEOT0116&lt;/div&gt;" style="rounded=1;whiteSpace=wrap;html=1;absoluteArcSize=1;arcSize=14;strokeWidth=2;align=left;fillColor=#008a00;fontColor=#ffffff;strokeColor=#005700;" parent="1" vertex="1">
          <mxGeometry x="-1300" y="-2760" width="180" height="100" as="geometry" />
        </mxCell>
        <mxCell id="-ZHznQ1eW0HuOb2Uy_OW-14" value="End" style="rounded=1;whiteSpace=wrap;html=1;absoluteArcSize=1;arcSize=14;strokeWidth=2;" parent="1" vertex="1">
          <mxGeometry x="-1070" y="-2725" width="50" height="30" as="geometry" />
        </mxCell>
        <mxCell id="bD-RqjvuANn1PTn80rGs-1" value="TODO: 构建更通用的提示" style="whiteSpace=wrap;html=1;" parent="1" vertex="1">
          <mxGeometry x="-1953" y="-2656" width="254" height="40" as="geometry" />
        </mxCell>
      </root>
    </mxGraphModel>
  </diagram>
  <diagram name="progress schema link" id="R2lxO5rgUgZDQxHgO5Gl">
    <mxGraphModel grid="0" page="0" gridSize="10" guides="1" tooltips="1" connect="1" arrows="1" fold="1" pageScale="1" pageWidth="827" pageHeight="1169" math="0" shadow="0">
      <root>
        <mxCell id="0" />
        <mxCell id="1" parent="0" />
        <mxCell id="bNu2SXdS037bqFfqN4gw-1" value="&lt;font style=&quot;font-size: 16px;&quot;&gt;模式链接&lt;/font&gt;" style="text;html=1;strokeColor=none;fillColor=none;align=center;verticalAlign=middle;whiteSpace=wrap;rounded=0;fontSize=15;" parent="1" vertex="1">
          <mxGeometry x="-1200" y="-60" width="130" height="30" as="geometry" />
        </mxCell>
        <mxCell id="bNu2SXdS037bqFfqN4gw-10" style="edgeStyle=orthogonalEdgeStyle;rounded=0;orthogonalLoop=1;jettySize=auto;html=1;exitX=1;exitY=0.5;exitDx=0;exitDy=0;entryX=0;entryY=0.5;entryDx=0;entryDy=0;" parent="1" source="bNu2SXdS037bqFfqN4gw-2" target="bNu2SXdS037bqFfqN4gw-3" edge="1">
          <mxGeometry relative="1" as="geometry" />
        </mxCell>
        <mxCell id="bNu2SXdS037bqFfqN4gw-2" value="&lt;font style=&quot;font-size: 16px;&quot;&gt;question&lt;/font&gt;" style="text;html=1;strokeColor=none;fillColor=none;align=center;verticalAlign=middle;whiteSpace=wrap;rounded=0;" parent="1" vertex="1">
          <mxGeometry x="-1165" y="58" width="60" height="30" as="geometry" />
        </mxCell>
        <mxCell id="bNu2SXdS037bqFfqN4gw-11" style="edgeStyle=orthogonalEdgeStyle;rounded=0;orthogonalLoop=1;jettySize=auto;html=1;exitX=1;exitY=0.5;exitDx=0;exitDy=0;entryX=0;entryY=0.5;entryDx=0;entryDy=0;" parent="1" source="bNu2SXdS037bqFfqN4gw-3" target="bNu2SXdS037bqFfqN4gw-4" edge="1">
          <mxGeometry relative="1" as="geometry" />
        </mxCell>
        <mxCell id="bNu2SXdS037bqFfqN4gw-3" value="动态构建Prompt&lt;br&gt;&lt;br&gt;&lt;div style=&quot;&quot;&gt;Prompt中表信息是动态的，对于fewshot，例子是动态的&lt;/div&gt;" style="rounded=1;whiteSpace=wrap;html=1;absoluteArcSize=1;arcSize=14;strokeWidth=2;align=left;fillColor=#60a917;fontColor=#ffffff;strokeColor=#2D7600;" parent="1" vertex="1">
          <mxGeometry x="-1061" y="33" width="160" height="80" as="geometry" />
        </mxCell>
        <mxCell id="bNu2SXdS037bqFfqN4gw-4" value="调用LLM" style="rounded=1;whiteSpace=wrap;html=1;absoluteArcSize=1;arcSize=14;strokeWidth=2;" parent="1" vertex="1">
          <mxGeometry x="-851" y="33" width="70" height="80" as="geometry" />
        </mxCell>
        <mxCell id="bNu2SXdS037bqFfqN4gw-8" value="" style="group" parent="1" vertex="1" connectable="0">
          <mxGeometry x="-730" y="-20" width="160" height="210" as="geometry" />
        </mxCell>
        <mxCell id="bNu2SXdS037bqFfqN4gw-7" value="schema link结果校验" style="rounded=1;whiteSpace=wrap;html=1;absoluteArcSize=1;arcSize=14;strokeWidth=2;labelPosition=center;verticalLabelPosition=top;align=center;verticalAlign=bottom;" parent="bNu2SXdS037bqFfqN4gw-8" vertex="1">
          <mxGeometry width="160" height="210" as="geometry" />
        </mxCell>
        <mxCell id="bNu2SXdS037bqFfqN4gw-5" value="fewshot - 文字描述&lt;br&gt;&lt;br&gt;1.结果中的column需要存在于table中&lt;br&gt;2.通过正则验证结果中的column描述是否与question相关" style="rounded=1;whiteSpace=wrap;html=1;absoluteArcSize=1;arcSize=14;strokeWidth=2;align=left;fillColor=#d5e8d4;strokeColor=#82b366;" parent="bNu2SXdS037bqFfqN4gw-8" vertex="1">
          <mxGeometry x="10" y="10" width="140" height="120" as="geometry" />
        </mxCell>
        <mxCell id="bNu2SXdS037bqFfqN4gw-6" value="zeroshot - json格式&lt;br&gt;&lt;br&gt;column是否存在于table中" style="rounded=1;whiteSpace=wrap;html=1;absoluteArcSize=1;arcSize=14;strokeWidth=2;align=left;fillColor=#fff2cc;strokeColor=#d6b656;" parent="bNu2SXdS037bqFfqN4gw-8" vertex="1">
          <mxGeometry x="10" y="140" width="140" height="60" as="geometry" />
        </mxCell>
        <mxCell id="bNu2SXdS037bqFfqN4gw-15" style="edgeStyle=orthogonalEdgeStyle;rounded=0;orthogonalLoop=1;jettySize=auto;html=1;exitX=1;exitY=0.5;exitDx=0;exitDy=0;exitPerimeter=0;entryX=0;entryY=0.5;entryDx=0;entryDy=0;" parent="1" source="bNu2SXdS037bqFfqN4gw-9" target="bNu2SXdS037bqFfqN4gw-14" edge="1">
          <mxGeometry relative="1" as="geometry" />
        </mxCell>
        <mxCell id="bNu2SXdS037bqFfqN4gw-21" style="edgeStyle=orthogonalEdgeStyle;rounded=0;orthogonalLoop=1;jettySize=auto;html=1;exitX=0.5;exitY=1;exitDx=0;exitDy=0;exitPerimeter=0;entryX=1;entryY=0.5;entryDx=0;entryDy=0;" parent="1" source="bNu2SXdS037bqFfqN4gw-9" target="bNu2SXdS037bqFfqN4gw-19" edge="1">
          <mxGeometry relative="1" as="geometry" />
        </mxCell>
        <mxCell id="bNu2SXdS037bqFfqN4gw-9" value="校验通过" style="strokeWidth=2;html=1;shape=mxgraph.flowchart.decision;whiteSpace=wrap;" parent="1" vertex="1">
          <mxGeometry x="-521" y="60" width="100" height="40" as="geometry" />
        </mxCell>
        <mxCell id="bNu2SXdS037bqFfqN4gw-12" style="edgeStyle=orthogonalEdgeStyle;rounded=0;orthogonalLoop=1;jettySize=auto;html=1;exitX=1;exitY=0.5;exitDx=0;exitDy=0;entryX=0.01;entryY=0.444;entryDx=0;entryDy=0;entryPerimeter=0;" parent="1" source="bNu2SXdS037bqFfqN4gw-4" target="bNu2SXdS037bqFfqN4gw-7" edge="1">
          <mxGeometry relative="1" as="geometry" />
        </mxCell>
        <mxCell id="bNu2SXdS037bqFfqN4gw-13" style="edgeStyle=orthogonalEdgeStyle;rounded=0;orthogonalLoop=1;jettySize=auto;html=1;exitX=0.991;exitY=0.473;exitDx=0;exitDy=0;entryX=0;entryY=0.5;entryDx=0;entryDy=0;entryPerimeter=0;exitPerimeter=0;" parent="1" source="bNu2SXdS037bqFfqN4gw-7" target="bNu2SXdS037bqFfqN4gw-9" edge="1">
          <mxGeometry relative="1" as="geometry" />
        </mxCell>
        <mxCell id="bNu2SXdS037bqFfqN4gw-17" style="edgeStyle=orthogonalEdgeStyle;rounded=0;orthogonalLoop=1;jettySize=auto;html=1;exitX=1;exitY=0.5;exitDx=0;exitDy=0;entryX=0;entryY=0.5;entryDx=0;entryDy=0;" parent="1" source="bNu2SXdS037bqFfqN4gw-14" target="bNu2SXdS037bqFfqN4gw-16" edge="1">
          <mxGeometry relative="1" as="geometry" />
        </mxCell>
        <mxCell id="bNu2SXdS037bqFfqN4gw-14" value="整合schema link结果" style="rounded=1;whiteSpace=wrap;html=1;absoluteArcSize=1;arcSize=14;strokeWidth=2;fillColor=#008a00;fontColor=#ffffff;strokeColor=#005700;" parent="1" vertex="1">
          <mxGeometry x="-380" y="50" width="80" height="60" as="geometry" />
        </mxCell>
        <mxCell id="bNu2SXdS037bqFfqN4gw-16" value="End" style="rounded=1;whiteSpace=wrap;html=1;absoluteArcSize=1;arcSize=14;strokeWidth=2;" parent="1" vertex="1">
          <mxGeometry x="-250" y="60" width="80" height="40" as="geometry" />
        </mxCell>
        <mxCell id="bNu2SXdS037bqFfqN4gw-22" style="edgeStyle=orthogonalEdgeStyle;rounded=0;orthogonalLoop=1;jettySize=auto;html=1;exitX=0;exitY=0.5;exitDx=0;exitDy=0;entryX=0;entryY=0.5;entryDx=0;entryDy=0;" parent="1" source="bNu2SXdS037bqFfqN4gw-19" target="bNu2SXdS037bqFfqN4gw-4" edge="1">
          <mxGeometry relative="1" as="geometry" />
        </mxCell>
        <mxCell id="bNu2SXdS037bqFfqN4gw-19" value="将校验通过的schema link存起来" style="rounded=1;whiteSpace=wrap;html=1;absoluteArcSize=1;arcSize=14;strokeWidth=2;fillColor=#008a00;fontColor=#ffffff;strokeColor=#005700;" parent="1" vertex="1">
          <mxGeometry x="-730" y="230" width="160" height="50" as="geometry" />
        </mxCell>
      </root>
    </mxGraphModel>
  </diagram>
  <diagram name="progress sql校验" id="g2xnhU8wUKM4AodyI0b9">
    <mxGraphModel grid="0" page="0" gridSize="10" guides="1" tooltips="1" connect="1" arrows="1" fold="1" pageScale="1" pageWidth="827" pageHeight="1169" math="0" shadow="0">
      <root>
        <mxCell id="0" />
        <mxCell id="1" parent="0" />
        <mxCell id="6eM4hsqrZe1IQDT6SxKK-20" style="edgeStyle=orthogonalEdgeStyle;rounded=0;orthogonalLoop=1;jettySize=auto;html=1;exitX=1;exitY=0.5;exitDx=0;exitDy=0;entryX=0;entryY=0.5;entryDx=0;entryDy=0;entryPerimeter=0;" parent="1" source="6eM4hsqrZe1IQDT6SxKK-9" target="6eM4hsqrZe1IQDT6SxKK-13" edge="1">
          <mxGeometry relative="1" as="geometry">
            <mxPoint x="229.99999999999977" y="156.9310344827586" as="targetPoint" />
          </mxGeometry>
        </mxCell>
        <mxCell id="6eM4hsqrZe1IQDT6SxKK-9" value="校验LLM生成的sql结果" style="rounded=1;whiteSpace=wrap;html=1;absoluteArcSize=1;arcSize=14;strokeWidth=2;labelPosition=center;verticalLabelPosition=top;align=center;verticalAlign=bottom;" parent="1" vertex="1">
          <mxGeometry x="-158" y="52" width="528" height="210" as="geometry" />
        </mxCell>
        <mxCell id="6eM4hsqrZe1IQDT6SxKK-22" style="edgeStyle=orthogonalEdgeStyle;rounded=0;orthogonalLoop=1;jettySize=auto;html=1;exitX=0;exitY=0.5;exitDx=0;exitDy=0;entryX=0;entryY=0.5;entryDx=0;entryDy=0;" parent="1" source="6eM4hsqrZe1IQDT6SxKK-1" target="6eM4hsqrZe1IQDT6SxKK-3" edge="1">
          <mxGeometry relative="1" as="geometry" />
        </mxCell>
        <mxCell id="6eM4hsqrZe1IQDT6SxKK-1" value="根据校验结果重新构建prompt" style="rounded=1;whiteSpace=wrap;html=1;absoluteArcSize=1;arcSize=14;strokeWidth=2;fillColor=#60a917;fontColor=#ffffff;strokeColor=#2D7600;" parent="1" vertex="1">
          <mxGeometry x="-158" y="320" width="100" height="50" as="geometry" />
        </mxCell>
        <mxCell id="6eM4hsqrZe1IQDT6SxKK-10" style="edgeStyle=orthogonalEdgeStyle;rounded=0;orthogonalLoop=1;jettySize=auto;html=1;exitX=1;exitY=0.5;exitDx=0;exitDy=0;entryX=0;entryY=0.5;entryDx=0;entryDy=0;" parent="1" source="6eM4hsqrZe1IQDT6SxKK-2" target="6eM4hsqrZe1IQDT6SxKK-3" edge="1">
          <mxGeometry relative="1" as="geometry" />
        </mxCell>
        <mxCell id="6eM4hsqrZe1IQDT6SxKK-2" value="根据table和schema link构建的prompt" style="text;html=1;strokeColor=none;fillColor=none;align=center;verticalAlign=middle;whiteSpace=wrap;rounded=0;" parent="1" vertex="1">
          <mxGeometry x="-508" y="135" width="60" height="30" as="geometry" />
        </mxCell>
        <mxCell id="6eM4hsqrZe1IQDT6SxKK-11" style="edgeStyle=orthogonalEdgeStyle;rounded=0;orthogonalLoop=1;jettySize=auto;html=1;exitX=1;exitY=0.5;exitDx=0;exitDy=0;entryX=0;entryY=0.5;entryDx=0;entryDy=0;" parent="1" source="6eM4hsqrZe1IQDT6SxKK-3" target="6eM4hsqrZe1IQDT6SxKK-4" edge="1">
          <mxGeometry relative="1" as="geometry" />
        </mxCell>
        <mxCell id="6eM4hsqrZe1IQDT6SxKK-3" value="调用LLM" style="rounded=1;whiteSpace=wrap;html=1;absoluteArcSize=1;arcSize=14;strokeWidth=2;" parent="1" vertex="1">
          <mxGeometry x="-398" y="120" width="80" height="60" as="geometry" />
        </mxCell>
        <mxCell id="6eM4hsqrZe1IQDT6SxKK-14" style="edgeStyle=orthogonalEdgeStyle;rounded=0;orthogonalLoop=1;jettySize=auto;html=1;exitX=1;exitY=0.5;exitDx=0;exitDy=0;" parent="1" source="6eM4hsqrZe1IQDT6SxKK-4" edge="1">
          <mxGeometry relative="1" as="geometry">
            <mxPoint x="-160" y="150" as="targetPoint" />
          </mxGeometry>
        </mxCell>
        <mxCell id="6eM4hsqrZe1IQDT6SxKK-4" value="对LLM生成的sql进行后处理" style="rounded=1;whiteSpace=wrap;html=1;absoluteArcSize=1;arcSize=14;strokeWidth=2;" parent="1" vertex="1">
          <mxGeometry x="-278" y="120" width="80" height="60" as="geometry" />
        </mxCell>
        <mxCell id="6eM4hsqrZe1IQDT6SxKK-15" style="edgeStyle=orthogonalEdgeStyle;rounded=0;orthogonalLoop=1;jettySize=auto;html=1;exitX=1;exitY=0.5;exitDx=0;exitDy=0;entryX=0;entryY=0.5;entryDx=0;entryDy=0;" parent="1" source="6eM4hsqrZe1IQDT6SxKK-6" target="6eM4hsqrZe1IQDT6SxKK-7" edge="1">
          <mxGeometry relative="1" as="geometry" />
        </mxCell>
        <mxCell id="6eM4hsqrZe1IQDT6SxKK-16" style="edgeStyle=orthogonalEdgeStyle;rounded=0;orthogonalLoop=1;jettySize=auto;html=1;exitX=1;exitY=0.5;exitDx=0;exitDy=0;entryX=0;entryY=0.5;entryDx=0;entryDy=0;" parent="1" source="6eM4hsqrZe1IQDT6SxKK-6" target="6eM4hsqrZe1IQDT6SxKK-8" edge="1">
          <mxGeometry relative="1" as="geometry" />
        </mxCell>
        <mxCell id="6eM4hsqrZe1IQDT6SxKK-6" value="sql检查：parse sql&lt;br&gt;&lt;br&gt;&lt;div style=&quot;&quot;&gt;检查是否有table中不存在的column&lt;/div&gt;" style="rounded=1;whiteSpace=wrap;html=1;absoluteArcSize=1;arcSize=14;strokeWidth=2;align=left;fillColor=#008a00;fontColor=#ffffff;strokeColor=#005700;" parent="1" vertex="1">
          <mxGeometry x="-140" y="120" width="120" height="60" as="geometry" />
        </mxCell>
        <mxCell id="6eM4hsqrZe1IQDT6SxKK-7" value="通过正则检查sql(针对多字段情况)&lt;br&gt;&lt;br&gt;&lt;div style=&quot;&quot;&gt;校验sql中的column description是否在问题中被提到&lt;/div&gt;" style="rounded=1;whiteSpace=wrap;html=1;absoluteArcSize=1;arcSize=14;strokeWidth=2;labelPosition=center;verticalLabelPosition=middle;align=left;verticalAlign=middle;fillColor=#60a917;fontColor=#ffffff;strokeColor=#2D7600;" parent="1" vertex="1">
          <mxGeometry x="22" y="62" width="188" height="80" as="geometry" />
        </mxCell>
        <mxCell id="6eM4hsqrZe1IQDT6SxKK-8" value="让大模型检查sql&lt;br&gt;&lt;br&gt;&lt;div style=&quot;&quot;&gt;检查question和摘要信息(column description)是否一致&lt;/div&gt;&lt;div style=&quot;&quot;&gt;(这种方法目前效果没有正则好)&lt;/div&gt;" style="rounded=1;whiteSpace=wrap;html=1;absoluteArcSize=1;arcSize=14;strokeWidth=2;labelPosition=center;verticalLabelPosition=middle;align=left;verticalAlign=middle;fillColor=#d5e8d4;strokeColor=#82b366;" parent="1" vertex="1">
          <mxGeometry x="22" y="157" width="188" height="90" as="geometry" />
        </mxCell>
        <mxCell id="6eM4hsqrZe1IQDT6SxKK-25" style="edgeStyle=orthogonalEdgeStyle;rounded=0;orthogonalLoop=1;jettySize=auto;html=1;exitX=1;exitY=0.5;exitDx=0;exitDy=0;exitPerimeter=0;" parent="1" source="6eM4hsqrZe1IQDT6SxKK-13" edge="1">
          <mxGeometry relative="1" as="geometry">
            <mxPoint x="580" y="156.9310344827586" as="targetPoint" />
          </mxGeometry>
        </mxCell>
        <mxCell id="6eM4hsqrZe1IQDT6SxKK-13" value="校验通过" style="strokeWidth=2;html=1;shape=mxgraph.flowchart.decision;whiteSpace=wrap;" parent="1" vertex="1">
          <mxGeometry x="450" y="107" width="100" height="100" as="geometry" />
        </mxCell>
        <mxCell id="6eM4hsqrZe1IQDT6SxKK-17" value="opt1" style="text;html=1;strokeColor=none;fillColor=none;align=center;verticalAlign=middle;whiteSpace=wrap;rounded=0;" parent="1" vertex="1">
          <mxGeometry x="-22" y="76" width="60" height="30" as="geometry" />
        </mxCell>
        <mxCell id="6eM4hsqrZe1IQDT6SxKK-18" value="opt2" style="text;html=1;strokeColor=none;fillColor=none;align=center;verticalAlign=middle;whiteSpace=wrap;rounded=0;" parent="1" vertex="1">
          <mxGeometry x="-22" y="200" width="60" height="30" as="geometry" />
        </mxCell>
        <mxCell id="6eM4hsqrZe1IQDT6SxKK-21" style="edgeStyle=orthogonalEdgeStyle;rounded=0;orthogonalLoop=1;jettySize=auto;html=1;exitX=0.5;exitY=1;exitDx=0;exitDy=0;exitPerimeter=0;entryX=0.997;entryY=0.608;entryDx=0;entryDy=0;entryPerimeter=0;" parent="1" source="6eM4hsqrZe1IQDT6SxKK-13" target="6eM4hsqrZe1IQDT6SxKK-1" edge="1">
          <mxGeometry relative="1" as="geometry" />
        </mxCell>
        <mxCell id="6eM4hsqrZe1IQDT6SxKK-23" value="End" style="rounded=1;whiteSpace=wrap;html=1;absoluteArcSize=1;arcSize=14;strokeWidth=2;" parent="1" vertex="1">
          <mxGeometry x="581" y="139.5" width="60" height="35" as="geometry" />
        </mxCell>
        <mxCell id="evY21AqS1uZlb9bx6Mw3-1" value="针对少字段情况&lt;br&gt;&lt;br&gt;与schema link结果进行对比" style="rounded=1;whiteSpace=wrap;html=1;absoluteArcSize=1;arcSize=14;strokeWidth=2;align=left;fillColor=#60a917;fontColor=#ffffff;strokeColor=#2D7600;" parent="1" vertex="1">
          <mxGeometry x="250" y="110" width="100" height="80" as="geometry" />
        </mxCell>
      </root>
    </mxGraphModel>
  </diagram>
  <diagram name="progress 架构" id="L7pJ9_-B9Ef9HAzWJ8CV">
    <mxGraphModel grid="0" page="0" gridSize="10" guides="1" tooltips="1" connect="1" arrows="1" fold="1" pageScale="1" pageWidth="827" pageHeight="1169" math="0" shadow="0">
      <root>
        <mxCell id="0" />
        <mxCell id="1" parent="0" />
        <mxCell id="OOLZY1k3LrfJozgPJS01-2" value="NL2SQL Modules" style="rounded=0;whiteSpace=wrap;html=1;labelPosition=center;verticalLabelPosition=top;align=center;verticalAlign=bottom;" parent="1" vertex="1">
          <mxGeometry x="-800" y="360" width="610" height="50" as="geometry" />
        </mxCell>
        <mxCell id="OOLZY1k3LrfJozgPJS01-3" value="NL2TALBLE" style="rounded=0;whiteSpace=wrap;html=1;fillColor=#60a917;fontColor=#ffffff;strokeColor=#2D7600;" parent="1" vertex="1">
          <mxGeometry x="-780" y="373" width="80" height="20" as="geometry" />
        </mxCell>
        <mxCell id="OOLZY1k3LrfJozgPJS01-4" value="Schema Link" style="rounded=0;whiteSpace=wrap;html=1;fillColor=#d5e8d4;strokeColor=#82b366;" parent="1" vertex="1">
          <mxGeometry x="-690" y="373" width="80" height="20" as="geometry" />
        </mxCell>
        <mxCell id="OOLZY1k3LrfJozgPJS01-5" value="NL2SQL" style="rounded=0;whiteSpace=wrap;html=1;fillColor=#60a917;fontColor=#ffffff;strokeColor=#2D7600;" parent="1" vertex="1">
          <mxGeometry x="-600" y="373" width="80" height="20" as="geometry" />
        </mxCell>
        <mxCell id="OOLZY1k3LrfJozgPJS01-6" value="Value Mapping" style="rounded=0;whiteSpace=wrap;html=1;fillColor=#60a917;fontColor=#ffffff;strokeColor=#2D7600;" parent="1" vertex="1">
          <mxGeometry x="-510" y="373" width="90" height="20" as="geometry" />
        </mxCell>
        <mxCell id="OOLZY1k3LrfJozgPJS01-7" value="Evaluation" style="rounded=0;whiteSpace=wrap;html=1;fillColor=#008a00;fontColor=#ffffff;strokeColor=#005700;" parent="1" vertex="1">
          <mxGeometry x="-410" y="373" width="80" height="20" as="geometry" />
        </mxCell>
        <mxCell id="OOLZY1k3LrfJozgPJS01-8" value="Ablation Experiment Framework" style="rounded=0;whiteSpace=wrap;html=1;fillColor=#60a917;fontColor=#ffffff;strokeColor=#2D7600;" parent="1" vertex="1">
          <mxGeometry x="-320" y="368" width="120" height="30" as="geometry" />
        </mxCell>
        <mxCell id="OOLZY1k3LrfJozgPJS01-10" value="FastChat REST Service" style="rounded=0;whiteSpace=wrap;html=1;labelPosition=center;verticalLabelPosition=top;align=center;verticalAlign=bottom;" parent="1" vertex="1">
          <mxGeometry x="-800" y="450" width="280" height="50" as="geometry" />
        </mxCell>
        <mxCell id="OOLZY1k3LrfJozgPJS01-11" value="Qwen-14B-Chat" style="rounded=0;whiteSpace=wrap;html=1;fillColor=#60a917;fontColor=#ffffff;strokeColor=#2D7600;" parent="1" vertex="1">
          <mxGeometry x="-790" y="460" width="120" height="30" as="geometry" />
        </mxCell>
        <mxCell id="OOLZY1k3LrfJozgPJS01-12" value="Qwen-14B-Chat&lt;br&gt;Lora 微调" style="rounded=0;whiteSpace=wrap;html=1;fillColor=#60a917;fontColor=#ffffff;strokeColor=#2D7600;" parent="1" vertex="1">
          <mxGeometry x="-660" y="460" width="120" height="30" as="geometry" />
        </mxCell>
        <mxCell id="OOLZY1k3LrfJozgPJS01-13" value="REST Service&amp;nbsp;" style="rounded=0;whiteSpace=wrap;html=1;labelPosition=center;verticalLabelPosition=top;align=center;verticalAlign=bottom;" parent="1" vertex="1">
          <mxGeometry x="-480" y="450" width="290" height="50" as="geometry" />
        </mxCell>
        <mxCell id="OOLZY1k3LrfJozgPJS01-14" value="NL2TABLE (Deep Learning)" style="rounded=0;whiteSpace=wrap;html=1;fillColor=#60a917;fontColor=#ffffff;strokeColor=#2D7600;" parent="1" vertex="1">
          <mxGeometry x="-320" y="460" width="120" height="30" as="geometry" />
        </mxCell>
        <mxCell id="OOLZY1k3LrfJozgPJS01-15" value="NL2SQL" style="rounded=0;whiteSpace=wrap;html=1;fillColor=#60a917;fontColor=#ffffff;strokeColor=#2D7600;" parent="1" vertex="1">
          <mxGeometry x="-460" y="460" width="120" height="30" as="geometry" />
        </mxCell>
        <mxCell id="OOLZY1k3LrfJozgPJS01-16" value="WebUI based on Streamlit （TODO）" style="rounded=0;whiteSpace=wrap;html=1;fillColor=#fff2cc;strokeColor=#d6b656;" parent="1" vertex="1">
          <mxGeometry x="-800" y="536" width="610" height="30" as="geometry" />
        </mxCell>
        <mxCell id="OOLZY1k3LrfJozgPJS01-17" value="" style="shape=flexArrow;endArrow=classic;html=1;rounded=0;endWidth=13.10344827586207;endSize=5.068965517241379;" parent="1" edge="1">
          <mxGeometry width="50" height="50" relative="1" as="geometry">
            <mxPoint x="-660" y="450" as="sourcePoint" />
            <mxPoint x="-660" y="410" as="targetPoint" />
          </mxGeometry>
        </mxCell>
        <mxCell id="OOLZY1k3LrfJozgPJS01-18" value="" style="shape=flexArrow;endArrow=classic;html=1;rounded=0;endWidth=13.10344827586207;endSize=5.068965517241379;" parent="1" edge="1">
          <mxGeometry width="50" height="50" relative="1" as="geometry">
            <mxPoint x="-330" y="450" as="sourcePoint" />
            <mxPoint x="-330" y="410" as="targetPoint" />
          </mxGeometry>
        </mxCell>
        <mxCell id="OOLZY1k3LrfJozgPJS01-20" value="" style="shape=flexArrow;endArrow=classic;html=1;rounded=0;endWidth=13.10344827586207;endSize=5.068965517241379;" parent="1" edge="1">
          <mxGeometry width="50" height="50" relative="1" as="geometry">
            <mxPoint x="-320" y="536" as="sourcePoint" />
            <mxPoint x="-320" y="500" as="targetPoint" />
          </mxGeometry>
        </mxCell>
      </root>
    </mxGraphModel>
  </diagram>
</mxfile>
